<?xml version="1.0" encoding="UTF-8" standalone="no"?>
<svg width="22px" height="19px" viewBox="0 0 22 19" version="1.1" xmlns="http://www.w3.org/2000/svg" xmlns:xlink="http://www.w3.org/1999/xlink">
    <!-- Generator: Sketch 3.6.1 (26313) - http://www.bohemiancoding.com/sketch -->
    <title>delete</title>
    <desc>Created with Sketch.</desc>
    <defs></defs>
    <g id="Page-1" stroke="none" stroke-width="1" fill="none" fill-rule="evenodd">
        <g id="Profile" transform="translate(-219.000000, -846.000000)" fill="#9B9B9B">
            <g id="Post-display-Copy" transform="translate(146.000000, 646.000000)">
                <g id="Icons" transform="translate(4.000000, 200.000000)">
                    <path d="M84.6570503,2.91859111 L89.8238454,2.91859111 C89.949101,2.91859111 90.0586997,2.9550735 90.1532677,3.02803828 C90.2465832,3.10100306 90.293554,3.18612863 90.293554,3.283415 L90.293554,4.01306278 C90.293554,4.12007779 90.2497145,4.20763552 90.1620356,4.27573598 C90.0749829,4.34383644 89.9616266,4.37788667 89.8238454,4.37788667 L70.0960823,4.37788667 C69.9583011,4.37788667 69.845571,4.34383644 69.757892,4.27573598 C69.6708394,4.20763552 69.6263736,4.12007779 69.6263736,4.01306278 L69.6263736,3.283415 C69.6263736,3.18612863 69.6739708,3.10100306 69.7672862,3.02803828 C69.8612279,2.9550735 69.9708266,2.91859111 70.0960823,2.91859111 L75.2628774,2.91859111 L75.2628774,1.45929556 C75.2628774,1.06042144 75.4476294,0.717486982 75.8171336,0.430492189 C76.1866377,0.143983828 76.6281638,0 77.141712,0 L82.7782157,0 C83.2923901,0 83.7339162,0.143983828 84.1034204,0.430492189 C84.4722982,0.717486982 84.6570503,1.06042144 84.6570503,1.45929556 L84.6570503,2.91859111 L84.6570503,2.91859111 L84.6570503,2.91859111 L84.6570503,2.91859111 Z M71.5052082,5.83718223 L88.4147194,5.83718223 L88.4147194,17.5115467 C88.4147194,17.9104208 88.2299674,18.2557874 87.8610895,18.5476465 C87.4915854,18.8395056 87.0500593,18.9854352 86.5358849,18.9854352 L73.3840428,18.9854352 C72.8704947,18.9854352 72.4289685,18.8395056 72.0594644,18.5476465 C71.6899603,18.2557874 71.5052082,17.9104208 71.5052082,17.5115467 L71.5052082,5.83718223 L71.5052082,5.83718223 L71.5052082,5.83718223 L71.5052082,5.83718223 Z M73.3840428,17.5115467 L75.2628774,17.5115467 L75.2628774,7.29647778 L73.3840428,7.29647778 L73.3840428,7.29647778 L73.3840428,17.5115467 L73.3840428,17.5115467 Z M77.141712,2.91859111 L82.7782157,2.91859111 L82.7782157,1.45929556 L77.141712,1.45929556 L77.141712,1.45929556 L77.141712,2.91859111 L77.141712,2.91859111 Z M77.141712,17.5115467 L79.0205465,17.5115467 L79.0205465,7.29647778 L77.141712,7.29647778 L77.141712,7.29647778 L77.141712,17.5115467 L77.141712,17.5115467 Z M80.8993811,17.5115467 L82.7782157,17.5115467 L82.7782157,7.29647778 L80.8993811,7.29647778 L80.8993811,7.29647778 L80.8993811,17.5115467 L80.8993811,17.5115467 Z M84.6570503,17.5115467 L86.5358849,17.5115467 L86.5358849,7.29647778 L84.6570503,7.29647778 L84.6570503,7.29647778 L84.6570503,17.5115467 L84.6570503,17.5115467 Z" id="delete"></path>
                </g>
            </g>
        </g>
    </g>
</svg>