<?xml version="1.0" encoding="UTF-8" standalone="no"?>
<svg width="24px" height="17px" viewBox="0 0 24 17" version="1.1" xmlns="http://www.w3.org/2000/svg" xmlns:xlink="http://www.w3.org/1999/xlink">
    <!-- Generator: Sketch 3.6.1 (26313) - http://www.bohemiancoding.com/sketch -->
    <title>edit</title>
    <desc>Created with Sketch.</desc>
    <defs></defs>
    <g id="Page-1" stroke="none" stroke-width="1" fill="none" fill-rule="evenodd">
        <g id="Profile" transform="translate(-258.000000, -848.000000)" fill="#9B9B9B">
            <g id="Post-display-Copy" transform="translate(146.000000, 646.000000)">
                <g id="Icons" transform="translate(4.000000, 200.000000)">
                    <path d="M129.458389,9.84025665 L129.458389,13.1236717 C129.458389,14.7288968 128.722512,16.1030667 127.250759,17.2461816 C125.779005,18.3892964 124.009769,18.9608539 121.943051,18.9608539 L116.306547,18.9608539 C114.240455,18.9608539 112.470593,18.3892964 110.999466,17.2461816 C109.527086,16.1030667 108.791209,14.7288968 108.791209,13.1236717 L108.791209,8.74578498 C108.791209,7.14055987 109.527086,5.76687632 110.999466,4.62327503 C112.470593,3.48016018 114.240455,2.90860276 116.306547,2.90860276 C120.89153,2.96697458 123.377228,3.03507504 123.76552,3.11290413 L120.270888,5.82719387 L114.427713,5.82719387 C113.914164,5.82719387 113.472638,5.9711777 113.103134,6.25768606 C112.73363,6.54468085 112.548878,6.88761531 112.548878,7.28648942 L112.548878,14.5829672 C112.548878,14.9818413 112.73363,15.3247758 113.103134,15.6117706 C113.472638,15.8987654 113.914164,16.0422628 114.427713,16.0422628 L123.821885,16.0422628 C124.33606,16.0422628 124.777586,15.8987654 125.14709,15.6117706 C125.515968,15.3247758 125.70072,14.9818413 125.70072,14.5829672 L125.70072,12.7588478 L129.458389,9.84025665 L129.458389,9.84025665 L129.458389,9.84025665 L129.458389,9.84025665 Z M116.982928,13.984656 L120.007851,13.2550083 L127.74865,7.24271056 L125.606778,5.59370658 L117.998125,11.5038536 L116.982928,13.984656 L116.982928,13.984656 L116.982928,13.984656 L116.982928,13.984656 Z M129.609322,5.79800796 L131.731779,4.14900398 L131.337224,2.90860276 L129.609322,2.5 L127.485613,4.14900398 L129.609322,5.79800796 L129.609322,5.79800796 Z" id="edit"></path>
                </g>
            </g>
        </g>
    </g>
</svg>