<?xml version="1.0" encoding="utf-8"?>
<!-- Generator: Adobe Illustrator 19.2.0, SVG Export Plug-In . SVG Version: 6.00 Build 0)  -->
<svg version="1.1" id="Layer_1" xmlns="http://www.w3.org/2000/svg" xmlns:xlink="http://www.w3.org/1999/xlink" x="0px" y="0px"
	 viewBox="0 0 100 125" style="enable-background:new 0 0 100 125;" xml:space="preserve">
<style type="text/css">
	.st0{display:none;}
	.st1{display:inline;}
	.st2{fill:none;stroke:#000000;stroke-width:3;}
	.st3{stroke:#000000;stroke-width:3;}
	.st4{fill:none;stroke:#000000;stroke-width:2;stroke-linejoin:round;}
	.st5{fill:none;stroke:#000000;stroke-width:1.2437;stroke-linejoin:round;}
	.st6{clip-path:url(#SVGID_2_);}
	.st7{fill:none;stroke:#000000;stroke-width:1.9202;stroke-miterlimit:10;}
	.st8{clip-path:url(#SVGID_4_);}
	.st9{stroke:#FFFFFF;stroke-width:1.4401;stroke-miterlimit:10;}
	.st10{fill:none;stroke:#000000;stroke-width:3.0012;stroke-miterlimit:10;}
	.st11{stroke:#000000;stroke-width:2.0008;stroke-linecap:round;stroke-linejoin:round;stroke-miterlimit:10;}
	.st12{fill:none;stroke:#000000;stroke-width:3.0025;stroke-miterlimit:10;}
	.st13{display:inline;fill:none;stroke:#000000;stroke-width:3;stroke-miterlimit:10;}
	.st14{clip-path:url(#SVGID_6_);}
	.st15{display:inline;fill:none;}
	.st16{clip-path:url(#SVGID_8_);}
	.st17{display:inline;fill:none;stroke:#000000;stroke-width:3;stroke-linejoin:round;stroke-miterlimit:10;}
	.st18{display:inline;fill:none;stroke:#000000;stroke-width:3;stroke-linecap:round;stroke-miterlimit:10;}
	.st19{display:inline;fill:none;stroke:#000000;stroke-width:3;stroke-linejoin:round;}
	.st20{display:inline;stroke:#000000;stroke-width:2;}
	.st21{display:inline;fill:none;stroke:#000000;stroke-width:3;}
	.st22{display:inline;fill:none;stroke:#000000;}
	.st23{fill:none;}
	.st24{clip-path:url(#SVGID_10_);}
	.st25{display:inline;stroke:#DB302A;stroke-width:12;stroke-linecap:round;stroke-linejoin:round;stroke-miterlimit:10;}
	.st26{display:inline;fill:none;stroke:#DB302A;stroke-width:12;stroke-linecap:round;stroke-miterlimit:10;}
	.st27{display:inline;stroke:#DB302A;stroke-width:8;stroke-linecap:round;stroke-miterlimit:10;}
	.st28{clip-path:url(#SVGID_12_);}
	.st29{clip-path:url(#SVGID_14_);}
	.st30{clip-path:url(#SVGID_16_);}
	.st31{clip-path:url(#SVGID_18_);}
	.st32{clip-path:url(#SVGID_20_);}
	.st33{display:inline;stroke:#DB302A;stroke-width:6;stroke-linecap:round;stroke-linejoin:round;stroke-miterlimit:10;}
	
		.st34{clip-path:url(#SVGID_22_);stroke:#DB302A;stroke-width:24;stroke-linecap:round;stroke-linejoin:round;stroke-miterlimit:10;}
	.st35{display:inline;fill:none;stroke:#DB302A;stroke-width:8;stroke-linecap:square;stroke-miterlimit:10;}
	.st36{clip-path:url(#SVGID_24_);}
	.st37{display:inline;stroke:#DB302A;stroke-width:8;stroke-linejoin:round;stroke-miterlimit:10;}
	.st38{clip-path:url(#SVGID_26_);}
	.st39{display:inline;stroke:#DB302A;stroke-width:8;stroke-linecap:round;stroke-linejoin:round;stroke-miterlimit:10;}
	.st40{clip-path:url(#SVGID_28_);}
	.st41{clip-path:url(#SVGID_30_);}
	.st42{clip-path:url(#SVGID_32_);}
</style>
<g class="st0">
	<path class="st1" d="M77.3,87.5L61,55.7c-0.8,4.8-2.3,9.4-4.3,13.6l11.6,22.8c0.9,1.7,2.6,2.7,4.5,2.7c0.8,0,1.5-0.2,2.3-0.5
		C77.6,93,78.5,90,77.3,87.5z"/>
	<circle class="st1" cx="50.6" cy="13.4" r="8.4"/>
	<path class="st1" d="M70.7,40.5c-9.2-3.9-15.2-13.8-15.3-14c-1.5-2.6-4.9-3.5-7.5-1.9c-0.4,0.2-0.7,0.5-1,0.7
		c-3.4,2.2-12.2,9-16.7,23.8c-0.9,2.8,0.7,5.8,3.6,6.7c2.8,0.9,5.8-0.7,6.7-3.6c1.9-6.3,4.7-10.7,7.2-13.5c0.6,3.7,0.9,8.6,0,14.1
		C44.9,70,29,85.6,28.8,85.8c-2.1,2.1-2.2,5.4-0.1,7.6c1,1.1,2.4,1.6,3.8,1.6c1.3,0,2.7-0.5,3.7-1.5C37,92.8,55,75.2,58.1,54.6
		c0.5-2.9,0.6-5.7,0.7-8.3c2.3,1.7,4.8,3.2,7.6,4.4c0.7,0.3,1.4,0.4,2.1,0.4c2.1,0,4.2-1.3,5.1-3.3C74.8,44.9,73.5,41.7,70.7,40.5z"
		/>
</g>
<g class="st0">
	<path class="st1" d="M24.8,18.6c5.7,0,10.3,4.6,10.3,10.3s-4.6,10.3-10.3,10.3s-10.3-4.6-10.3-10.3S19.1,18.6,24.8,18.6 M24.8,15.7
		c-7.3,0-13.3,6-13.3,13.3s6,13.3,13.3,13.3s13.3-6,13.3-13.3C38.1,21.6,32.1,15.7,24.8,15.7L24.8,15.7z"/>
	<g class="st1">
		<path d="M64,5C50.5,5,39.5,16,39.5,29.5c0,2.5,0.4,4.9,1.1,7.2c0.9-0.5,1.9-0.9,2.7-1.2c-0.5-1.9-0.9-3.9-0.9-6
			C42.5,17.6,52.2,8,64,8c11.9,0,21.5,9.7,21.5,21.5C85.6,41.4,75.9,51,64,51c-4.6,0-8.9-1.5-12.4-3.9c-0.4,0.4-0.7,0.7-1,1.1
			c4.6,3.2,7.3,3.6,11.2,4.2c0.4,0.1,0.7,0.3,0.9,0.6c0,0,0.3,0.4,0.7,1c0.2,0,0.3,0,0.5,0c13.5,0,24.5-11,24.5-24.5
			C88.5,16,77.6,5,64,5z"/>
	</g>
	<path class="st1" d="M67.6,60.7c-1.6-3.5-4.7-7.5-4.8-7.7c-0.2-0.3-0.6-0.5-0.9-0.6c-3.9-0.6-6.6-1-11.2-4.2
		c1.6-1.9,4.1-3.9,6.5-5.2c1.4-0.7,3-1.2,4.5-1.6c3-0.8,6.7-1.9,5.8-5.6c-0.5-2.2-3.6-3.5-8.3-3.5c-0.5,0-1,0-1.6,0.1
		c-3.1,0.2-6.3,0.5-11.7,2.3c-3.6,1.2-10.9,4.4-13,8.3c-2.3,3.9-1,9.8,3.2,14c0,0,3.9,4,9,9.5c1.2,1.3,2.4,2.6,3.5,4
		c0.2,3.7,0.4,8.4,0,10.9c-0.4,2.3-2.4,7.9-0.8,9.2c1.2,0.9,4.7-1,7.5-4.2c0.2-0.2,0.3-0.4,0.5-0.6l0.6,2.6c0.6,3.9,3.3,6.9,6.1,6.9
		h0.2c3.5-0.2,5.9-6.6,6.7-12.5C69.6,81.9,71.2,68.6,67.6,60.7z M66.6,82.2c-0.8,6.3-3.1,9.8-3.9,9.9h-0.1c-1.2,0-2.8-1.8-3.2-4.4
		v-0.1L58,81.3c-1.6-6.7-6.3-12.4-10.6-17.1c-5.2-5.5-9-9.5-9.1-9.5c-3.2-3.2-4.4-7.8-2.7-10.5c1.3-2.4,6.8-5.5,11.3-6.9
		c5.1-1.6,8-1.9,11-2.1c0.5,0,0.9,0,1.4,0c3.6,0,5.2,0.9,5.4,1.3c0.2,0.8-0.3,1.1-3.7,2.1c-1.6,0.5-3.4,1-5.1,1.9
		c-3.3,1.7-6.6,4.6-8.4,7.3c-0.3,0.5-0.3,1-0.1,1.5l0,0c0,0,6.8,10.1,16.3,10.1c0.5,0.9,1,1.8,1.4,2.6C68.2,69,66.6,82,66.6,82.2z"
		/>
</g>
<g class="st0">
	<g class="st1">
		<path d="M88.6,25.9H62.9v-5.4c0-2.4-1.9-4.3-4.3-4.3H41.4c-2.4,0-4.3,1.9-4.3,4.3v5.4H11.4c-3.5,0-6.4,2.9-6.4,6.4v45
			c0,3.5,2.9,6.4,6.4,6.4h77.1c3.5,0,6.4-2.9,6.4-6.4v-45C95,28.8,92.1,25.9,88.6,25.9z M41.4,20.5h17.1v5.4H41.4V20.5z M73.8,30.2
			v49.3H26.3V30.2H73.8z M9.3,77.3v-45c0-1.2,1-2.1,2.1-2.1h8.7v49.3h-8.7C10.2,79.5,9.3,78.5,9.3,77.3z M90.7,77.3
			c0,1.2-1,2.1-2.1,2.1H80V30.2h8.6c1.2,0,2.1,1,2.1,2.1V77.3z"/>
		<path d="M57,34.8L40.7,51.1L51.6,62l16.3-16.3V34.8H57z M64.1,41.9c-0.9,0.9-2.4,0.9-3.3,0c-0.9-0.9-0.9-2.4,0-3.3
			c0.9-0.9,2.4-0.9,3.3,0C65,39.5,65,41,64.1,41.9z"/>
	</g>
</g>
<g class="st0">
	<g class="st1">
		<path d="M94.5,57.5c-1.6-0.4-3.2,0.6-3.6,2.3c-4.4,19.2-21.2,32.6-41,32.6c-15,0-29-8.1-36.5-21.2c0-0.1-0.1-0.1-0.1-0.2
			c0,0,0-0.1-0.1-0.1c-1.2-2.1-2.9-6.7-3.3-8c-0.9-3.5-0.8-5.8,0.2-7.2c1.3-1.6,4.3-2.5,8.8-2.6h4.8l0,0v4.4c0,3.2,2,5.8,4.6,5.8h13
			v-5h7.9v-5.9h-7.9v-4h7.9v-5.9h-7.9v-5h-13c-2.5,0-4.6,2.6-4.6,5.8V47l0,0h-4.8C12.4,47.1,8,48.7,5.5,51.9c-2.3,3-2.7,7-1.3,12.4
			c0.4,1.6,2.3,6.8,3.9,9.5c0,0.1,0.1,0.1,0.1,0.1s0,0.1,0.1,0.1C16.8,89.1,32.8,98.4,50,98.4c22.6,0,41.8-15.3,46.8-37.3
			C97.2,59.5,96.2,57.8,94.5,57.5z M43.5,54.4h3.9v1.9h-3.9V54.4z M43.5,44.4h3.9v1.9h-3.9V44.4z M27.9,43.3c0-1.1,0.4-1.7,0.7-1.8
			h8.9v17.8h-8.9c-0.2-0.2-0.7-0.8-0.7-1.8V43.3z"/>
		<path d="M5.5,43.2c0.2,0.1,0.4,0.1,0.7,0.1c1.4,0,2.6-0.9,2.9-2.3C13.4,21.8,30.3,8.4,50,8.4c15,0,29,8.1,36.5,21.2
			c0.1,0.2,0.3,0.4,0.4,0.6c1.2,2.3,2.6,6.3,3,7.5c0.9,3.5,0.8,5.8-0.2,7.2c-1.3,1.6-4.3,2.5-8.8,2.6h-4.7v-4c0-3.2-2-5.8-4.6-5.8
			h-13v25.8h13c2.5,0,4.6-2.6,4.6-5.8v-4h4.7c6.6-0.1,11.1-1.7,13.6-4.9c2.3-3,2.7-7,1.3-12.4c-0.4-1.6-2.3-6.8-3.9-9.5
			c-0.1-0.3-0.3-0.5-0.5-0.7C82.6,11.4,66.9,2.4,50,2.4C27.4,2.4,8.2,17.7,3.2,39.7C2.8,41.3,3.8,42.9,5.5,43.2z M72.1,57.4
			c0,1.1-0.4,1.7-0.7,1.8h-8.9V41.5h8.9c0.2,0.2,0.7,0.8,0.7,1.8V57.4z"/>
	</g>
</g>
<g class="st0">
	<g class="st1">
		<path d="M61.5,93.9h-23c3.7,1,7.5,1.5,11.5,1.5S57.8,94.9,61.5,93.9z"/>
		<path d="M84.9,83.4v10.4H70.3c-1.2,0.5-2.3,1-3.6,1.5h19.7V81.8C85.9,82.4,85.4,82.9,84.9,83.4z"/>
		<path d="M29.7,93.9H15.1V83.4c-0.5-0.5-1-1.1-1.5-1.6v13.6h19.7C32.1,94.9,30.9,94.4,29.7,93.9z"/>
		<path d="M18.3,19.7c8-8.4,19.2-13.6,31.7-13.6s23.7,5.2,31.7,13.6h2C75.4,10.5,63.4,4.6,50,4.6s-25.4,5.8-33.7,15.1H18.3z"/>
		<path d="M95.4,50L95.4,50L95.4,50c0-8.2-2.2-15.9-6-22.6v3.1C92.3,36.4,94,43,94,49.9l0,0c0,24.2-19.7,43.9-43.9,43.9
			c-24.3,0.1-44-19.6-44-43.8l0,0c0-7,1.6-13.6,4.6-19.4v-3.1c-3.8,6.7-6,14.4-6,22.6l0,0l0,0l0,0l0,0C4.6,75,25,95.4,50,95.4
			S95.4,75,95.4,50L95.4,50L95.4,50z"/>
		<path d="M86.2,22.7h-1.9H15.7h-1.9h-0.2v0.2l0,0v2.6l0,0V55l0,0v4v0.4v9.3c0.5,0.9,1,1.8,1.5,2.6v-12V59v-3.7l0,0V24.2h69.7V55
			l0,0v4v0.4v12c0.5-0.9,1-1.7,1.5-2.6v-9.3V59v-3.7l0,0V25.4L86.2,22.7l0.1-0.1h-0.1V22.7z"/>
		<path d="M49.8,34.9c-3,0-5.4-2.4-5.4-5.4s2.4-5.4,5.4-5.4s5.4,2.4,5.4,5.4S52.8,34.9,49.8,34.9z M49.8,25.6
			c-2.2,0-3.9,1.8-3.9,3.9c0,2.2,1.8,3.9,3.9,3.9c2.2,0,3.9-1.7,3.9-3.9C53.7,27.4,52,25.6,49.8,25.6z"/>
		<path d="M81.4,35.6H71.2l11.5-5.2c1.7-0.7,2.4-2.7,1.7-4.3c-0.5-1.2-1.7-1.9-3-1.9c-0.5,0-0.9,0.1-1.3,0.3l-25,11.1H44.4L20,24.4
			c-0.4-0.2-0.9-0.3-1.4-0.3c-1.3,0-2.5,0.8-3,1.9c-0.8,1.6,0,3.6,1.6,4.3l11.4,5.2h-3.1l0,0h-6.9c-1.8,0-3.3,1.5-3.3,3.3
			s1.5,3.3,3.3,3.3H42V56c0,0.1-0.1,0.2-0.1,0.3L31.2,86.9c-0.3,0.8-0.3,1.7,0.1,2.5s1,1.4,1.9,1.7c0.4,0.1,0.7,0.2,1.1,0.2
			c1.4,0,2.6-0.9,3.1-2.2L42,76.6v14.8c0,1.8,1.5,3.3,3.3,3.3s3.3-1.5,3.3-3.3v-31H51v31c0,1.8,1.5,3.3,3.3,3.3s3.3-1.5,3.3-3.3
			V77.2l4.3,11.9c0.5,1.3,1.7,2.2,3.1,2.2c0.4,0,0.8-0.1,1.1-0.2c0.8-0.3,1.5-0.9,1.8-1.7c0.4-0.8,0.4-1.7,0.1-2.5
			c-8.4-24.2-10.2-29.2-10.5-30.3v-1.4l0,0v-13h23.9c1.8,0,3.3-1.5,3.3-3.3C84.7,37.1,83.2,35.6,81.4,35.6z M80.7,25.8
			c0.2-0.1,0.5-0.2,0.7-0.2c0.7,0,1.3,0.4,1.6,1.1c0.4,0.9,0,2-0.9,2.4l-14.6,6.5h-8.8L80.7,25.8z M17.8,29.1
			c-0.9-0.4-1.3-1.5-0.9-2.4c0.3-0.7,1-1.1,1.6-1.1c0.2,0,0.5,0.1,0.7,0.2l21.5,9.8H32L17.8,29.1z M36,88.6c-0.3,0.7-1,1.2-1.7,1.2
			c-0.2,0-0.4,0-0.6-0.1c-0.9-0.3-1.4-1.4-1.1-2.3L42,60.5v11.8L36,88.6z M66.6,87.4c0.3,0.9-0.1,2-1.1,2.3
			c-0.2,0.1-0.4,0.1-0.6,0.1c-0.7,0-1.4-0.5-1.7-1.2l-5.7-15.8V61.1C60.4,69.5,66.6,87.4,66.6,87.4z M81.4,40.7H56.7L56,41v15.8l0,0
			v11.9l0,0v22.7c0,1-0.8,1.8-1.8,1.8s-1.8-0.8-1.8-1.8V59H47v32.5c0,1-0.8,1.8-1.8,1.8s-1.8-0.8-1.8-1.8V68.2l0,0V55.3l0,0V41
			l-0.6-0.3H18.6c-1,0-1.8-0.8-1.8-1.8s0.8-1.8,1.8-1.8h16.9l0,0h8.7l0,0h11.3l0,0h8.8l0,0h17.2c1,0,1.8,0.8,1.8,1.8
			C83.2,39.9,82.4,40.7,81.4,40.7z"/>
	</g>
</g>
<g class="st0">
	<g class="st1">
		<path d="M52.3,8.5c0.5,0,0.9,0.2,0.9,0.7c0,1.3-2.8,1.8-2.8,4.1v0.9h3.7v-0.6c0-1.4,3.1-1.9,3.1-4.9c0-2.6-2.4-3.8-4.6-3.8
			c-2.6,0-4.1,1.7-4.1,1.7l2.1,2.6C50.6,9.3,51.4,8.5,52.3,8.5z"/>
		<rect x="50.5" y="15.4" width="3.4" height="3.2"/>
		<path d="M62.9,45.1c2.2-2.6,3.6-6,3.6-9.6c0-8.2-6.7-14.9-14.9-14.9s-14.9,6.7-14.9,14.9c0,4,1.6,7.7,4.3,10.5
			c-2,1.7-5.3,5.3-6.7,10.6v0.1c0,0.1-0.1,0.3-0.1,0.4v0.2c-0.1,0.5-0.2,0.9-0.3,1.4c-0.4,2.1-0.4,3.9,0,5.4c0.3,1.4,1.4,2.8,1.6,3
			c0.1,0.1,0.1,0.1,0.2,0.2l0,0c0,2.1,0.1,5.5,0.2,6.1c0.4,8.5,2.7,16.4,4.3,19.4c1.8,3.5,4.3,4,5.9,3.5c0.6-0.2,1.2-0.7,1.5-1.4
			c0.5-0.9,0.6-2,0.6-2.2v-0.1v-5.7c0.9,0.1,2.2,0.5,3.1,1.5c1.9,2.2,2.4,3.5,3.1,5.5c0.6,1.8,1.7,2.4,2.4,2.6
			c0.3,0.1,0.6,0.1,0.9,0.1c0.9,0,1.8-0.3,2.5-0.9c1.5-1.3,4.1-7.6,4.7-17c0.4-5.5-0.2-11-0.8-14.7v-0.1v-0.1
			c-0.2-1-0.3-1.9-0.4-2.7l0.1-0.1c0.3-0.3,0.6-0.7,0.8-1c0.2-0.2,0.3-0.4,0.5-0.6c0.3-0.5,0.6-1,0.9-1.7c0.8-2.2,1.1-5.9-0.5-9.2
			C64.7,47.2,63.9,46.2,62.9,45.1z M62.3,57.5c-0.1,0.2-0.3,0.3-0.4,0.5c-0.2,0.3-0.4,0.5-0.7,0.8c-0.2,0.2-0.5,0.5-0.7,0.7
			c-1,0.8-2,1.4-3,1.6c-0.2,0-0.5,0.1-0.7,0.1c-0.7,0.1-1.5,0.1-2.2,0.1l0,0l0,0c-0.1,0-0.6-0.1-1.2-0.3c-0.8-0.2-1.9-0.7-2.7-1.4
			c-0.4-0.3-0.7-0.6-1-1c-0.3-0.3-0.5-0.6-0.7-0.9c-0.2-0.3-0.4-0.5-0.5-0.9c-0.1-0.1-0.1-0.3-0.2-0.4c-0.2-0.3-0.3-0.7-0.5-1.1
			c-0.1-0.4-0.3-0.8-0.4-1.2c-0.1-0.2-0.1-0.4-0.2-0.7c-0.6-2-0.8-3.8-0.8-5.2v-0.1c0-0.7,0.1-1.2,0.2-1.4c0,0,0-0.1,0.1-0.1
			c0.1-0.1,0.4-0.1,0.6,0c0.8,0.3,1.4,1,2.5,2.5l0.1,0.1l3.9,4.9c0.5,0.6,1.4,0.8,2.1,0.3c0,0,1.2-0.8,2.4-1.9
			c1-0.9,1.7-1.7,2.2-2.5c0.4-0.7,0.7-1.4,1-2.1c0.5,0.6,0.9,1.2,1.2,1.8c1.2,2.5,1,5.2,0.4,6.8C62.6,56.9,62.5,57.3,62.3,57.5z
			 M54.4,50c0.8-0.2,1.5-0.4,2.3-0.6c-0.2,0.2-0.4,0.4-0.7,0.7s-0.6,0.5-0.9,0.7L54.4,50z M39.8,35.4c0-6.5,5.3-11.8,11.8-11.8
			S63.3,29,63.3,35.4c0,6.2-4.9,11.4-11.1,11.7l0,0L52.1,47c-1.2-1.7-2.2-3-4-3.6c-1-0.3-2.1-0.3-3,0.2c-0.4,0.2-0.7,0.5-1,0.8
			C41.4,42.3,39.8,39,39.8,35.4z M36.9,59.1c0.1-0.4,0.2-0.8,0.3-1.2l0.1-0.5v-0.1c1-3.8,3.2-6.5,4.8-8.2c0.1,1.5,0.4,3.3,0.9,5.2
			l0.1,0.5c0.1,0.4,0.2,0.8,0.3,1.1c-0.1,0.1-0.3,0.2-0.4,0.3c-0.5,0.4-0.8,0.6-1,0.7l0,0.2c-1,0.5-2,1-2.1,1
			c-0.7,0.3-1.1,1.1-0.9,1.8s0.8,1.2,1.6,1.2c0,0,1.2-0.1,2.6-0.3c0.3-0.1,0.6-0.1,1-0.2c0.4-0.1,0.8-0.3,1.3-0.4
			c0.4,0.6,1,1.2,1.6,1.9c0.2,0.2,0.5,0.5,0.8,0.8c0.6,0.6,1.3,1,2.2,1.5c-0.2,0.1-0.4,0.2-0.6,0.4c-2,1.1-5.9,2-8.4,2l0,0
			c-1.2,0-1.6-0.2-1.8-0.3c-0.2-0.1-0.9-0.6-1.4-1.2c-0.3-0.4-0.8-1.3-1-1.8C36.6,62.1,36.6,60.8,36.9,59.1z M61.6,78.4
			C61,88.1,58.4,92.8,58,93.2c-0.2,0.2-0.5,0.2-0.6,0.2s-0.2-0.2-0.3-0.5c-0.7-2.3-1.4-4-3.7-6.7c-1.8-2-4.4-2.5-5.8-2.6
			c-0.7-0.1-1.3,0-1.3,0c-0.8,0.1-1.4,0.7-1.4,1.6v7.3c0,0.2-0.1,0.5-0.2,0.8c-0.4-0.1-1.1-0.5-1.9-2c-1.4-2.6-3.5-10.1-3.9-18.1
			c0-0.9-0.1-2.5-0.1-3.9c0.6,0.2,1.4,0.3,2.3,0.3l0,0c3,0,7.4-1.1,9.8-2.4c0.9-0.5,1.8-1.1,2.7-1.8c0.2-0.2,0.5-0.4,0.7-0.5
			s0.3-0.3,0.4-0.5c0.3,0,0.5,0,0.8,0c0.6,0,1.2,0,1.8-0.1c0.3,0,0.7-0.1,1-0.2c0.9-0.2,1.7-0.5,2.5-0.9c0,0.3,0.1,0.6,0.1,0.9v0.1
			c0,0.2,0,0.3,0.1,0.5C61.4,68.2,61.9,73.3,61.6,78.4z"/>
	</g>
</g>
<g>
	<path d="M39.5,73.2c0,0,4.9,2.1,6.1,4.6c1.2,2.5,1.1,3.9,0.5,5c-0.5,1.1-3.2,2.3-6.2,2.3s-7.4-0.4-7.4-0.4
		C45.5,81.9,39.5,73.2,39.5,73.2z"/>
	<path class="st2" d="M69,27.8c0,7.7-6.3,14-14,14s-14-6.3-14-14s6.3-14,14-14C62.7,13.8,69,20,69,27.8"/>
	<path class="st2" d="M9,60.3c1.8-2.8,9.2-10.8,18.6-14c6.2-2.1,15.6-3.6,20.7,1.8s8,13.1,12.4,15.1s8.2,2.3,9.4,4.3
		c1.2,1.9,0.5,5.7-3.5,5.7c-4.1,0-12.4-2.7-18.6-5s-8-3.9-8-3.9l-4.3,7.6c0,0,2.3,0.4,4.3,1.8s3,4.3,1.2,6.4s-6,4.8-9.4,5.5
		s-14,1.2-19,0.2c-5-1.1-8.1-6.7-7.8-13.5C5.4,66,7.2,63.1,9,60.3z"/>
	<path class="st3" d="M37.7,62.1c-0.6-0.6-1.9-1.9-1.9-1.9s-3.2,4.7-4.8,6.7c-1.6,1.9-3.5,3.8-3.5,3.8s1.8,0.2,4.1,0.6
		s4.1,0.6,4.1,0.6l4.3-7.6C40,64.2,38.4,62.7,37.7,62.1z"/>
	<polygon class="st4" points="83.8,50.8 95,60.8 94.4,76.4 81.9,78.8 	"/>
	<path class="st4" d="M49.3,80.4c0-0.5,0.4-0.9,0.9-0.9l31.7-0.7l0.1,5.9l-31.7-0.4c-0.5,0-0.9-0.4-0.9-0.9L49.3,80.4z"/>
	<polygon class="st4" points="94.4,76.4 94.3,78.8 82,84.6 81.9,78.8 	"/>
	<polygon class="st5" points="83.8,50.4 82.6,50.6 80.7,78.7 81.9,78.8 	"/>
	<ellipse transform="matrix(6.986628e-02 -0.9976 0.9976 6.986628e-02 16.8862 152.1282)" cx="90" cy="67" rx="1.9" ry="0.5"/>
</g>
<g class="st0">
	<path class="st1" d="M50.3,43.5c-8.2,0-14.9-6.7-14.9-14.9s6.7-14.9,14.9-14.9s14.9,6.7,14.9,14.9C65.2,36.8,58.5,43.5,50.3,43.5z
		 M50.3,16.8c-6.5,0-11.8,5.3-11.8,11.8s5.3,11.8,11.8,11.8s11.8-5.3,11.8-11.8S56.8,16.8,50.3,16.8z"/>
	<path class="st1" d="M60.3,96.5c-0.4,0-0.8-0.1-1.2-0.2c-2.1-0.7-2.4-3.6-2.4-4.1v-0.1v-7.6c-1.5,0-4.5,0.3-6.4,1.8
		c-1.8,1.5-2,2.8-2.3,4.5c-0.1,0.8-0.2,1.6-0.5,2.4c-0.7,2-2.2,3.1-4.2,3.1l0,0c-0.7,0-1.4-0.1-2.1-0.4c-2.4-0.8-5.7-9.7-6.5-21.1
		c-0.8-12.2,1.9-19.5,2-19.8l0.3-0.8L68.2,48l0.5,1.1c0,0.1,0.7,1.5,1.1,3.2c0,0.2,0.2,0.5,0.3,0.9c0.7,2.1,2.2,6.5,1.8,15.3
		c-0.5,10.5-3.6,20.3-5.6,23.9C64,96.1,61.3,96.5,60.3,96.5z M60.1,93.5c0,0,0.1,0,0.2,0c0.8,0,2.1-0.7,3.2-2.8
		c1.8-3.2,4.7-12.6,5.2-22.5c0.4-8.2-1-12.2-1.6-14.1c-0.2-0.5-0.3-0.9-0.4-1.2c-0.1-0.5-0.3-1-0.4-1.4l-27.1,5.4
		c-0.6,2.1-2.2,8.5-1.5,17.8c0.8,11.2,3.7,17.5,4.6,18.5c0.4,0.1,0.7,0.2,1,0.2l0,0c0.6,0,1-0.2,1.3-1c0.2-0.6,0.3-1.3,0.4-2
		c0.3-1.9,0.6-4.2,3.4-6.4c2.7-2.1,6.6-2.4,8.7-2.4c0.8,0,1.3,0,1.3,0l1.4,0.1v10.5C59.7,92.6,59.9,93.2,60.1,93.5z"/>
	<path class="st1" d="M36,73l18.1,4.7c0,0,15.2-6.6,16-7c0.2-2.2,0.1-4.5,0.1-4.5l-34.3,0.9L36,73z"/>
	<g class="st1">
		<polygon points="48.7,34.6 71.2,25.2 71.1,33.1 51.5,41.5 		"/>
		<path d="M51.1,42.2l-2.9-7.9l23.4-9.8l-0.1,8.9L51.1,42.2z"/>
	</g>
	<g class="st1">
		<polygon points="48.8,34.6 25,26.8 28.7,35.5 51.8,41.5 		"/>
		<path d="M52.3,42.1l-27.1-6.2l-0.8-9.8l24.8,8.1L52.3,42.1z"/>
	</g>
	<g class="st1">
		<polygon points="51.5,71.2 71.4,63.2 71.4,53.1 70.2,52.6 70.2,44.7 71.4,43.9 71.4,30.4 49.6,37.7 48.7,38 47.8,37.8 25.8,32.2 
			27.3,45.7 28.4,46.2 31.5,50.9 29.3,56.8 28.4,56.8 29.3,65.3 		"/>
		<polygon points="74.5,26.2 74.4,41.9 74.4,41.9 		"/>
		<polygon points="74.4,65.3 74.4,54.1 74.4,54.1 		"/>
		<polygon points="47.8,37.8 48.7,38 49.6,37.7 71.4,30.4 71.4,43.9 73.9,42.1 74.5,41.8 74.5,26.2 48.6,34.9 22.3,28.2 24,44.3 
			27.3,45.7 25.8,32.2 		"/>
		<polygon points="74,54.4 71.4,53.1 71.4,63.2 51.5,71.2 29.3,65.3 28.4,56.8 25.4,57.2 26.5,67.7 51.6,74.4 74.4,65.3 74.4,54.1 
					"/>
	</g>
	<path class="st1" d="M73.5,55.2c-2.1,0-3.7-1-4.5-2.8c-1.1-2.5-1-5.4-0.3-7c0.5-1.4,1.1-2.7,2.6-3.8c1.3-1,3-1.7,3.1-1.7l0.5-0.2
		l0.5,0.1c1.8,0.5,5.3,2.6,5.5,7c0.3,5.5-4.7,7.9-5.9,8.2C74.7,55.1,74.2,55.2,73.5,55.2z M75,43c-0.5,0.2-1.3,0.6-1.9,1.1
		c-0.8,0.6-1.2,1.4-1.6,2.5c-0.3,0.8-0.5,2.8,0.3,4.7c0.1,0.3,0.4,1,1.7,1c0.3,0,0.5,0,0.7-0.1c0,0,3.8-1.4,3.6-5
		C77.7,44.5,75.8,43.4,75,43z"/>
	<path class="st1" d="M25.8,58.9c-2.2,0-6.5-2.6-6.7-8.6c-0.2-5.4,3.2-7.2,5-7.4h0.4l0.4,0.1c0,0,1.6,0.7,2.8,1.2
		c0.2,0.1,0.3,0.1,0.5,0.2c1.2,0.5,3.3,1.3,4.2,3.6c0.8,2.2,0.9,5.6-0.8,7.9C30,58.1,27.3,58.9,25.8,58.9z M24.1,46.1
		c-0.6,0.2-2,1.1-1.9,4.2c0.1,4.8,3.5,5.6,3.7,5.6c0.7,0,2.4-0.5,3.3-1.7c0.8-1.1,1-3.3,0.4-5c-0.4-0.9-1.3-1.4-2.5-1.9
		c-0.2-0.1-0.5-0.2-0.7-0.3C25.6,46.7,24.7,46.3,24.1,46.1z"/>
	<path class="st1" d="M50,9.8c-0.8,0-1.5-0.7-1.5-1.5V5c0-0.8,0.7-1.5,1.5-1.5s1.5,0.7,1.5,1.5v3.3C51.5,9.1,50.9,9.8,50,9.8z"/>
	<path class="st1" d="M60.3,12.5c-0.4,0-0.7-0.1-1-0.4c-0.6-0.6-0.7-1.5-0.2-2.1L61,7.8c0.6-0.6,1.5-0.7,2.2-0.2
		c0.6,0.6,0.7,1.5,0.2,2.1l-1.9,2.2C61.2,12.3,60.8,12.5,60.3,12.5z"/>
	<path class="st1" d="M40.4,12.7c-0.4,0-0.7-0.1-1-0.4l-2-1.9c-0.6-0.6-0.7-1.5-0.1-2.2c0.6-0.6,1.5-0.7,2.2-0.1l2,1.9
		c0.6,0.6,0.7,1.5,0.1,2.2C41.3,12.5,40.8,12.7,40.4,12.7z"/>
	
		<rect x="48.6" y="34.8" transform="matrix(0.9971 -7.675000e-02 7.675000e-02 0.9971 -4.0466 4.0097)" class="st1" width="3" height="39.7"/>
</g>
<g class="st0">
	<g class="st1">
		<g>
			<g>
				<defs>
					<path id="SVGID_1_" d="M54.3,84.4c-1-4.1-3.6-7.7-6-10.5c0.1,2.9,0.5,7.8,0.1,10.2c-0.3,1.8-1.8,6-0.6,7
						c0.9,0.7,3.6-0.8,5.8-3.2c0.4-0.5,0.8-1,1.3-1.5C54.7,85.7,54.5,85.1,54.3,84.4"/>
				</defs>
				<clipPath id="SVGID_2_">
					<use xlink:href="#SVGID_1_"  style="overflow:visible;"/>
				</clipPath>
				<rect x="46.1" y="72.7" class="st6" width="9.8" height="19.6"/>
			</g>
		</g>
		<path class="st7" d="M44.8,50.3C40.7,42,43.3,31.8,51,26.5c0.6-0.5,1.4-1.5,1.1-2.7c-0.4-1.7-2.5-10.9-3-13.1l-0.4,0.1
			c-0.5,0.1-1-0.2-1.1-0.7l-0.4-1.6c-0.1-0.5,0.2-1,0.7-1.1L58.3,5c0.5-0.1,1,0.2,1.1,0.7l0.4,1.6c0.1,0.5-0.2,1-0.7,1.1l-0.2,0.1
			c0.5,2.2,2.6,11.5,3,12.9s2.4,2.1,2.8,2.2c5.2,0.9,10,4,13,8.9c5.3,8.9,2.4,20.4-6.5,25.6c-6.6,4-14.8,3.3-20.6-1"/>
		<path d="M46,36.5c-1.2,3.3-1.4,7.1-0.2,10.7c0.3,0.9,0.6,1.7,1,2.5c0.6,1.1,6.9-1.9,9.4-1.4c14.4,2.5-5.6,6.5-4.4,7.3
			c4.1,3,9.6,4.1,14.8,2.4c8.7-2.8,13.5-12.1,10.7-20.8c-0.1-0.2-0.1-0.4-0.2-0.6H46V36.5z"/>
		<g>
			<g>
				<defs>
					<path id="SVGID_3_" d="M60.7,66.8c0,0-1.7-2.8-2.5-3.7c-6.2-0.9-10-4.1-10-4.1C48.3,59,53.8,67,60.7,66.8z"/>
				</defs>
				<clipPath id="SVGID_4_">
					<use xlink:href="#SVGID_3_"  style="overflow:visible;"/>
				</clipPath>
				<rect x="47.1" y="57.9" class="st8" width="14.8" height="10.1"/>
			</g>
		</g>
		<path d="M62.8,68.7c-1.2-2.7-3.6-5.8-3.7-5.9c-0.2-0.2-0.4-0.4-0.7-0.4c-3-0.5-5-0.8-8.6-3.3c1.3-1.5,3.1-3,5-4
			c1.1-0.6,2.3-0.9,3.5-1.2c2.3-0.6,5.1-1.5,4.4-4.3c-0.4-1.7-2.8-2.7-6.3-2.7c-0.4,0-0.8,0-1.2,0c-2.4,0.2-4.8,0.4-8.9,1.7
			c-2.8,0.9-8.4,3.4-9.9,6.3c-1.8,3-0.7,7.5,2.5,10.8c0,0,3,3,6.9,7.3c0.9,1,1.8,2,2.7,3.1c0.1,2.9,0.3,6.4,0,8.3
			c-0.3,1.8-1.8,6.1-0.6,7c0.9,0.7,3.6-0.8,5.8-3.2c0.1-0.1,0.3-0.3,0.4-0.5l0.5,2c0.5,3,2.5,5.3,4.7,5.3h0.1c2.7-0.1,4.6-5,5.1-9.6
			C64.3,85,65.5,74.7,62.8,68.7z M62,85.1c-0.6,4.8-2.3,7.5-3,7.6l0,0c-0.9,0-2.2-1.4-2.5-3.4v-0.1l-1.1-4.7
			c-1.2-5.1-4.8-9.5-8.1-13.1c-4-4.2-6.9-7.3-6.9-7.3C38,61.6,37,58.2,38.3,56c1-1.9,5.3-4.2,8.7-5.3c3.9-1.2,6.1-1.5,8.4-1.6
			c0.4,0,0.7,0,1.1,0c2.8,0,4,0.7,4.1,1c0.1,0.6-0.2,0.9-2.9,1.6c-1.2,0.4-2.6,0.7-3.9,1.4c-2.5,1.3-5.1,3.5-6.5,5.6
			C47,59,47,59.5,47.2,59.8l0,0c0,0,5.2,7.7,12.5,7.8c0.4,0.7,0.8,1.4,1.1,2C63.2,75.1,62,85,62,85.1z"/>
		<path class="st9" d="M50.7,59.2c1.4-1.7,2.7-2.7,4.8-3.8c1.2-0.6,2.6-1,3.9-1.4c2.6-0.7,4.4-1.9,4-4.5c-0.3-2-3.4-3.2-7.4-3.2
			c-0.5,0-5.6,0.2-10.3,1.7c-3.1,1-9.5,3.8-11.3,7.2"/>
		<path d="M29.9,36.4c4.4,0,7.9,3.6,7.9,7.9c0,4.4-3.6,7.9-7.9,7.9S22,48.7,22,44.3C22,40,25.5,36.4,29.9,36.4 M29.9,34.1
			c-5.6,0-10.2,4.6-10.2,10.2s4.6,10.2,10.2,10.2s10.2-4.6,10.2-10.2C40.1,38.7,35.5,34.1,29.9,34.1L29.9,34.1z"/>
	</g>
</g>
<g class="st0">
	<g class="st1">
		<path class="st10" d="M37.5,34.6c-0.3-6.4-1.4-11.5-1.8-15.4C35.2,14.5,33.8,6,37.4,5.1c3.6-0.9,4.9,5.1,5.5,6.9s1.9,6.4,2.9,9.6
			c0.2,0.7,0.5,1.8,0.8,3.2"/>
		<path class="st10" d="M30.3,64.3c0.6-1.2,1.4-2.5,2.3-3.8c3.4-4.9,4.5-10.7,4.8-16.5"/>
		<path class="st10" d="M60.2,51.4c2.3,3.4,4.5,7.2,5.9,10.6c3.1,7.9,3.5,13.7,1.2,19.8c-2.3,6.1-7,9.6-11.7,9.4
			c-1.6-0.1-3.8-1.1-3.8-1.2"/>
		<path d="M60.8,52.2c0,0,2.1,3.4,3,5.2c-1,1.4-4.6,2.5-7,2.5c-5.6,0-10.5-3-13.1-7.5C43.6,52.4,50.5,56.8,60.8,52.2z"/>
		<path class="st11" d="M51.7,90.6c3.1-1.3,6.5-4.3,7.6-7.1c1.2-2.8,1.6-6.8,0.9-11.4c-0.7-4.7-2.7-8.6-2.7-8.6s3.9,9.5,1.4,13.2
			s-6.8,8.2-8.3,9.7"/>
		<ellipse class="st10" cx="51.9" cy="39.5" rx="15.2" ry="15.2"/>
		<path class="st12" d="M32.5,87.1c-2-1.6-4-3.2-5.4-4.6c-4.1-3.9-5.2-5.7-5.4-9.3c-0.2-3.9,1.9-6.1,3.7-7.3
			c1.3-0.8,3.1-1.3,4.7-1.3c1.9,0,3.6,0.6,5,1.8c2.3,1.9,3.1,4.2,3.8,6.3c0.3,1,0.6,1.9,1,2.6 M49.4,86.4c1,1.4,1.3,3.2,1,4.7
			c-0.2,1.1-0.9,2-1.8,2.5c-0.7,0.4-1.6,0.6-2.5,0.6c-1.6,0-3.3-0.6-4.7-1.1h-0.1"/>
		<path class="st12" d="M34.6,95L34.6,95c-0.8,0-1.6-0.2-2.2-0.5c-0.9-0.5-1.6-1.3-1.9-2.4c-0.4-1.5-0.1-3.3,0.8-4.7
			c0.7-1.1,1.7-2.1,2.9-3.2c1.1-1,2.2-2.1,3-3.3c1.5-2.1,1.6-2.3,2.3-3.9c0.1-0.3,0.3-0.7,0.5-1.1c0.4-0.8,0.6-1.7,0.9-2.7
			c0.6-2.1,1.3-4.5,3.4-6.5c1.5-1.3,3.3-2,5.4-2c1.5,0,3.2,0.4,4.3,1.1c1.9,1.1,4.1,3.2,4.1,7.1c0,3.6-1,5.5-4.9,9.6
			c-3.7,3.9-11.6,10.4-13.7,11.3l-0.1,0.1C38.1,94.3,36.3,95,34.6,95z"/>
		<path d="M68.3,24.2c-0.2,0-0.5-0.1-0.7-0.3c-0.4-0.4-0.4-1,0-1.4l2.6-2.8c0.4-0.4,1-0.4,1.4,0s0.4,1,0,1.4L69,23.9
			C68.8,24.1,68.5,24.2,68.3,24.2z"/>
		<path d="M74,33.6c-0.5,0-0.9-0.4-1-0.9s0.3-1,0.9-1.1l3.3-0.4c0.5-0.1,1,0.3,1.1,0.9c0.1,0.5-0.3,1-0.9,1.1L74,33.6
			C74,33.6,74,33.6,74,33.6z"/>
		<path d="M57.2,18.3c-0.5,0-0.9-0.4-1-0.9L56,14.3c0-0.5,0.4-1,0.9-1.1c0.5,0,1,0.4,1.1,0.9l0.3,3.1C58.2,17.8,57.8,18.3,57.2,18.3
			C57.3,18.3,57.2,18.3,57.2,18.3z"/>
		<path class="st10" d="M33,87.4"/>
	</g>
</g>
<g class="st0">
	<ellipse class="st13" cx="34" cy="21.7" rx="14.4" ry="14.4"/>
	<g class="st1">
		<g>
			<defs>
				<path id="SVGID_5_" d="M67,67.7c0-1,0.8-1.9,1.9-1.9h15.8c1,0,1.9,0.8,1.9,1.9v15.8c0,1-0.8,1.9-1.9,1.9H68.8
					c-1,0-1.9-0.8-1.9-1.9L67,67.7L67,67.7z"/>
			</defs>
			<clipPath id="SVGID_6_">
				<use xlink:href="#SVGID_5_"  style="overflow:visible;"/>
			</clipPath>
			<g class="st14">
				<path d="M84.5,67.9v15.5H69V67.9H84.5 M84.6,65.9H68.8c-1,0-1.9,0.8-1.9,1.9v15.8c0,1,0.8,1.9,1.9,1.9h15.8c1,0,1.9-0.8,1.9-1.9
					V67.7C86.5,66.7,85.6,65.9,84.6,65.9L84.6,65.9z"/>
			</g>
		</g>
	</g>
	<path class="st15" d="M67,67.7c0-1,0.8-1.9,1.9-1.9h15.8c1,0,1.9,0.8,1.9,1.9v15.8c0,1-0.8,1.9-1.9,1.9H68.8c-1,0-1.9-0.8-1.9-1.9
		L67,67.7L67,67.7z"/>
	<g class="st1">
		<g>
			<defs>
				<path id="SVGID_7_" d="M68.2,48.2c0-1,0.8-1.9,1.9-1.9h15.8c1,0,1.9,0.8,1.9,1.9V64c0,1-0.8,1.9-1.9,1.9H70.1
					c-1,0-1.9-0.8-1.9-1.9V48.2z"/>
			</defs>
			<clipPath id="SVGID_8_">
				<use xlink:href="#SVGID_7_"  style="overflow:visible;"/>
			</clipPath>
			<g class="st16">
				<path d="M85.7,48.4v15.5H70.2V48.4H85.7 M85.9,46.4H70.1c-1,0-1.9,0.8-1.9,1.9V64c0,1,0.8,1.9,1.9,1.9h15.8c1,0,1.9-0.8,1.9-1.9
					V48.2C87.7,47.2,86.9,46.4,85.9,46.4L85.9,46.4z"/>
			</g>
		</g>
	</g>
	<path class="st15" d="M68.2,48.2c0-1,0.8-1.9,1.9-1.9h15.8c1,0,1.9,0.8,1.9,1.9V64c0,1-0.8,1.9-1.9,1.9H70.1c-1,0-1.9-0.8-1.9-1.9
		V48.2z"/>
	<g class="st1">
		<path d="M73.9,70.9H80v1.8l-1.4,1.8c1.2,0.3,1.8,1.3,1.8,2.3c0,1.5-1,3.1-3.5,3.1c-2.1,0-3.1-1.2-3.1-1.2l1.2-1.9
			c0,0,0.8,0.7,1.7,0.7c0.7,0,1-0.3,1-0.7c0-0.4-0.3-0.7-1.2-0.7c-0.1,0-0.2,0-0.4,0l-0.5-1.2l1.3-1.7c0.2-0.3,0.5-0.5,0.5-0.5l0,0
			c0,0-0.3,0-0.6,0H76v0.7h-2.1V70.9z"/>
	</g>
	<g class="st1">
		<path d="M74.5,59.2c0-3.3,3.8-3.8,3.8-5c0-0.6-0.4-0.7-0.7-0.7c-0.7,0-1.2,1-1.2,1l-1.8-1.2c0,0,0.8-2,3.3-2
			c1.4,0,3.2,0.7,3.2,2.8c0,2.5-3.6,3.1-3.7,4.2h1.7v-1h2.1v3.1h-6.6C74.6,59.9,74.5,59.5,74.5,59.2z"/>
	</g>
	<g class="st1">
		<path d="M68,27.6l6.3,14.2l-14.2,6.3l-6.3-14.2L68,27.6 M68.1,25.6c-0.3,0-0.5,0.1-0.8,0.2l-14.4,6.4c-0.9,0.4-1.4,1.5-0.9,2.5
			l6.4,14.4c0.3,0.7,1,1.1,1.7,1.1c0.3,0,0.5-0.1,0.8-0.2l14.4-6.4c0.9-0.4,1.4-1.5,0.9-2.5l-6.4-14.4C69.5,26,68.8,25.6,68.1,25.6
			L68.1,25.6z"/>
	</g>
	<g class="st1">
		<path d="M62.2,41.1l1.7-0.8l-1.2-2.7c-0.1-0.3-0.3-0.7-0.3-0.7l0,0c0,0,0,0.3-0.1,0.5l-0.2,0.5l-2-0.9l1.4-3.2l2-0.9l2.8,6.2
			l1.7-0.8l0.8,1.9l-5.7,2.6L62.2,41.1z"/>
	</g>
	<path class="st17" d="M23.8,42.5c1.7-1,5.5-2.6,9.7-1.3s4.4,3.7,13.6,4c9.2,0.2,11.1-1.4,11.8,1.7c0.8,3.1-5.5,5.9-7.3,6.5
		s-13.3,2.9-16.5,3.3c-0.4,1.8-0.8,9,0,11.6c0.8,2.6,7.3,8.4,9.4,12.4c2,4.1-1.1,7.7-6,8.5c-4.8,0.8-12.8,1.2-18.1,0.1
		s-4.1-0.9-6.2-1.1c-2-0.2-3.4,0.5-5.7,1.1s-4.1,1.1-3.2-3.2c0.9-4.2,4.2-7,6.1-7.7c1.8-0.7,6.3,0,6.3,0s-6.1-6.1-5.4-14.7
		c0.5-6.2,3-11.8,4.8-14.5C18.7,46.6,22.1,43.6,23.8,42.5z"/>
	<path class="st1" d="M35,55.2l-7.2,0.9c0,0,0.6,3,1.9,5.9c1.3,2.9,3.1,6.7,4.7,8.3C33.2,60.5,35,55.2,35,55.2z"/>
	<path class="st18" d="M16.1,76.8c2.6,4.3,7.1,4.5,13,4.3"/>
</g>
<g class="st0">
	<path class="st1" d="M55,79.9c0,0-2.8,0.7-5.4-1.4c-2.6-2.1-3.1-5.7-2.6-9.4c0.5-3.7,0.9-12.1,0.5-14.4c-0.4-2.3-2.6-7.5-2.6-7.5
		l7.7-4l6,19.8L55,79.9z"/>
	<g class="st1">
		<path d="M32.3,52.9c-4.3,0-7.5,1.9-8.3,4.9c-1,3.8,2.8,8.1,8.4,9.5c1.2,0.3,2.4,0.5,3.6,0.5l0,0c4.3,0,7.5-1.9,8.3-4.9
			c1-3.8-2.8-8.1-8.4-9.5C34.7,53.1,33.5,52.9,32.3,52.9L32.3,52.9z M36.1,66.2c-1.1,0-2.2-0.1-3.2-0.4c-4.8-1.2-8-4.6-7.3-7.6
			c0.6-2.2,3.3-3.7,6.8-3.7c1.1,0,2.2,0.1,3.2,0.4c4.8,1.2,8,4.6,7.3,7.6C42.3,64.7,39.6,66.2,36.1,66.2L36.1,66.2L36.1,66.2z"/>
	</g>
	<path class="st1" d="M36.4,66.5L36.4,66.5c-1.2,0-2.4-0.2-3.6-0.5c-2.7-0.7-5-2-6.6-3.7c-1.7-1.8-2.3-3.9-1.8-5.8
		c0.7-3,4-4.9,8.3-4.9c1.2,0,2.4,0.2,3.6,0.5c2.7,0.7,5,2,6.6,3.7c1.7,1.8,2.3,3.9,1.8,5.8C43.9,64.6,40.6,66.5,36.4,66.5z
		 M32.6,53.3c-3.5,0-6.2,1.5-6.8,3.7c-0.3,1.4,0.2,3,1.5,4.4c1.4,1.5,3.4,2.7,5.8,3.2c1.1,0.3,2.2,0.4,3.2,0.4l0,0
		c3.5,0,6.2-1.5,6.8-3.7c0.3-1.4-0.2-3-1.5-4.4c-1.4-1.5-3.4-2.7-5.8-3.2C34.8,53.4,33.7,53.3,32.6,53.3z"/>
	<path class="st1" d="M8.9,54.9l-3.1-0.8C5.2,54,4.9,53.4,5,52.9l0.4-1.7c0.1-0.5,0.7-0.9,1.2-0.7l2,0.5L8.9,54.9z"/>
	<path class="st1" d="M15.6,52.7l2.3,0.6c0.5,0.1,0.9,0.7,0.7,1.2l-0.4,1.7c-0.1,0.5-0.7,0.9-1.2,0.7l-3.4-0.8L15.6,52.7z"/>
	
		<rect x="19.6" y="50.7" transform="matrix(0.2419 -0.9703 0.9703 0.2419 -38.7819 62.2553)" class="st1" width="1.7" height="10.5"/>
	<path class="st19" d="M25.8,38.7c-1,0.6-2,1.4-2.8,2.3c-4,4.3-5.6,7.7-6.3,10.5c-0.7,2.9-1.3,5.6-3.9,6.1s-6-2.1-4.8-9.8
		c1.1-7.7,3.5-12.1,5.2-15C15.5,29,23.9,9.3,52.6,16.2s33.6,30.3,34,37.6C87,61.1,85,69.3,85,69.3s1.4-0.7,5.2,0.6
		c3.8,1.3,5.7,4.9,4.7,8.2c-0.6,1.3-1.7,1.2-2.2,1.3c-0.3,0.1-15.7,0.4-27.8,0.3"/>
	<path class="st19" d="M54,79.6c-1.7-0.1-2.8-0.3-3.1-0.4c-2.7-1.4-4.8-3.6-3.8-11c0.9-7.3,0.6-13-0.5-16.7
		c-0.3-1.1-0.9-2.4-1.4-3.6"/>
	<path class="st15" d="M50.9,42.4c0,0,7,7.3,7.3,17.3S55.2,76,54.9,78c-0.2,2-0.1,4.8,4.9,4.4s8.7-9.4,9.5-11.8s4-12.4,3.1-21.7"/>
	<path class="st20" d="M58.8,83.1c-1.7,0-2.8-0.4-3.6-1.2c-1.1-1.1-1.1-2.7-0.9-4c0.1-0.6,0.3-1.4,0.7-2.6c1-3.1,2.7-8.3,2.5-15.7
		c-0.2-9.7-5.9-15.5-6-15.5c-0.3-0.3-0.3-0.7,0-1s0.7-0.3,1,0s6.1,6.3,6.3,16.5c0.2,7.5-1.6,12.9-2.6,16.1c-0.3,1-0.6,1.8-0.7,2.3
		c-0.1,1-0.1,2.2,0.6,2.9c0.6,0.7,1.9,0.9,3.6,0.8c2.4-0.2,4.5-2.8,5.8-4.9c1.6-2.5,2.7-5.2,3.1-6.5c3.3-10.1,3.5-17.2,3.1-21.4
		c0-0.4,0.2-0.7,0.6-0.7s0.7,0.2,0.7,0.6c0.4,4.3,0.2,11.6-3.2,21.9c0,0.1-3.9,11.8-10,12.3C59.5,83.1,59.2,83.1,58.8,83.1z"/>
	<path class="st21" d="M40.3,19.1c-8.3,0-15,6.7-15,15s6.7,15,15,15s15-6.7,15-15S48.6,19.1,40.3,19.1z"/>
	<path class="st1" d="M83.5,68.9c0,0-1,3.9-1.3,4.7c-0.3,0.8-0.5,1.2-0.5,1.2s2.5-0.9,3.3-2.3c0.9-1.4,1-3.7,1-3.7
		C84.3,68.5,83.5,68.9,83.5,68.9z"/>
	<path class="st1" d="M29.3,84.6c-0.4,0-0.7-0.2-0.9-0.5c-3.6-6.5-2.1-9.3-2-9.5c0.2-0.5,0.8-0.7,1.3-0.5s0.7,0.8,0.5,1.3
		c-0.1,0.2-1.1,2.1,1.9,7.7c0.3,0.5,0.1,1.1-0.4,1.4C29.6,84.6,29.4,84.6,29.3,84.6z"/>
	<path class="st1" d="M29.1,85L29.1,85c-0.4,0-0.7-0.1-0.9-0.4c-0.3-0.3-1-0.8-1.6-0.9s-1.5,0-2,0.1c-0.7,0.2-1.5-0.3-1.6-1
		c-0.2-0.7,0.2-1.5,1-1.6c0.2,0,1.8-0.5,3.2-0.2c1,0.2,1.9,0.8,2.4,1.2c0.6-0.1,1.6-0.4,2.4-1.5c0.4-0.6,1.3-0.7,1.9-0.3
		c0.6,0.4,0.7,1.3,0.3,1.9C32.2,84.9,29.4,85,29.1,85z"/>
	<path class="st22" d="M29.3,69.3c0,0,1.6-1.5,3-1.1c1.4,0.3,0.5,2,0.5,2s1.6,0.1,1.9,0.6c0.4,0.5,0.4,2.2-0.6,2.6S32.6,74,32.6,74
		s1.1,1.5,0.1,2.3s-2.2,0.8-2.8,0.5c-0.6-0.3-1.8-1.4-2-2c-0.3-0.7-0.3-1.3-0.3-1.3s-0.5,1.2-1.8,1.5s-3.1-0.5-3.6-1.7
		s-0.1-2.1,0.4-2.6s2.2-0.5,2.2-0.5s-0.5-0.8-0.2-1.2c0.3-0.5,1.4-1,2.3-0.9s1.6,0.3,1.9,0.6S29.3,69.3,29.3,69.3z"/>
	<path class="st1" d="M28.2,72.8c1.3,0.4,2.2-0.2,2.2-0.2s0.3-0.8-0.2-1.4s-1.8-0.9-2.6-0.7c-0.9,0.2-1.1,0.8-1.1,1
		C26.3,71.6,26.9,72.4,28.2,72.8z"/>
</g>
<g class="st0">
	<path class="st1" d="M5.2,92l24-24l0.3-0.3l0.4,0.3c0,0,0.3,0.2,0.6,0.5c0.6,0.6,0.8,1,0.8,1.5s-0.3,0.9-0.6,1.4
		c-0.3,0.4-0.7,0.9-0.7,1.5c0,0.2,0.1,0.4,0.2,0.7c0.1,0.3,0.2,0.6,0.2,0.9c0.1,0.7-0.3,1.1-0.3,1.2L9.5,96.3L5.2,92z M29.6,69.1
		L6.7,92l2.8,2.8L29.3,75c0,0,0.1-0.2,0.1-0.4c0-0.2-0.1-0.5-0.2-0.7c-0.1-0.4-0.3-0.8-0.2-1.2c0.1-0.8,0.5-1.4,0.9-1.9
		c0.2-0.3,0.4-0.6,0.4-0.8c0-0.1-0.1-0.3-0.5-0.8C29.7,69.2,29.7,69.1,29.6,69.1z"/>
	<path class="st1" d="M5.8,90.6c0.1,0.1,0.4,0.1,0.5,0l8-8c0.1-0.1,0.1-0.4,0-0.5s-0.4-0.1-0.5,0l-8,8C5.7,90.3,5.7,90.5,5.8,90.6z"
		/>
	<path class="st1" d="M7.3,92.2c0.1,0.1,0.4,0.1,0.5,0l8-8c0.1-0.1,0.1-0.4,0-0.5s-0.4-0.1-0.5,0l-8,8C7.2,91.9,7.2,92.1,7.3,92.2z"
		/>
	<path class="st1" d="M9.3,94L9.3,94c0.1,0.1,0.4,0.1,0.5,0l8-8c0.1-0.1,0.1-0.4,0-0.5l0,0c-0.1-0.1-0.4-0.1-0.5,0l-8,8
		C9.2,93.6,9.2,93.9,9.3,94z"/>
	<path class="st1" d="M11,95.6c0.1,0.1,0.4,0.1,0.5,0l8-8c0.1-0.1,0.1-0.4,0-0.5s-0.4-0.1-0.5,0l-8,8C10.9,95.3,10.9,95.5,11,95.6z"
		/>
	<path class="st1" d="M29.5,74.6c0-0.2-0.1-0.5-0.2-0.8c-0.1-0.4-0.3-0.7-0.2-1.1c0.1-0.8,0.5-1.4,0.9-1.9c0.2-0.3,0.5-0.7,0.5-0.9
		c0-0.1,0-0.3-0.6-0.9l-0.1,0c-0.1-0.1-0.1-0.2-0.1-0.2c0-0.1,0-0.2,0.1-0.3l62-61.6C92.3,6.5,93.4,6,94.5,7
		c0.5,0.5,0.7,1.1,0.7,1.6c0,0.7-0.5,1.2-0.5,1.2l-64.5,65c-0.1,0.1-0.2,0.1-0.4,0.1c0,0-0.1,0-0.1-0.1
		C29.6,74.7,29.5,74.6,29.5,74.6z M92.3,7.4L30.5,68.8c0.4,0.5,0.6,0.9,0.6,1.2c0,0.4-0.3,0.9-0.6,1.3c-0.3,0.4-0.7,0.9-0.8,1.5
		c0,0.2,0.1,0.5,0.2,0.8c0,0.1,0.1,0.2,0.1,0.3L94.2,9.3c0,0,0.3-0.3,0.3-0.7c0-0.3-0.2-0.7-0.5-1.1C93.2,6.7,92.3,7.4,92.3,7.4z"/>
	<circle class="st1" cx="27.9" cy="74.8" r="0.7"/>
	<path class="st1" d="M24.3,69.3c-0.3-0.4-0.6-1.2,0.2-1.9c0.8-0.7,1.5-0.4,1.8-0.1l2.2,2.2l-2,2L24.3,69.3L24.3,69.3z M27.6,69.6
		l-1.7-1.7c-0.1-0.1-0.4-0.3-0.8,0.1c-0.5,0.4-0.2,0.8-0.1,0.9l1.7,1.7L27.6,69.6z"/>
	<path class="st1" d="M17,83.4l4.7-4.7c0.1-0.1,0.3-0.1,0.4,0l0.9,0.9l0,0c0,0,0.1,0.1,0.1,0.2s0,0.1-0.1,0.2l-4.7,4.7
		c-0.1,0.1-0.3,0.1-0.4,0l-0.9-1C16.9,83.6,16.9,83.5,17,83.4z M22.4,79.8l-0.6-0.6l-4.3,4.3l0.6,0.6L22.4,79.8z"/>
</g>
<g class="st0">
	<g class="st1">
		<g>
			<path d="M46.6,55.9L46,55.4c0,0,1.9-1.9,3.9-3.9l2.7-2.8c0.9-1,1.7-1.7,2-2.2c1.3-1.5,3.5-5.7,4.4-7.6c0-0.1,2.8-6.2,3.3-6.9
				c0.3-0.5,2.3-2.5,4.3-4.5l0.5-0.5c1.3-1.3,14.8-14.6,15.7-15.5c1-0.9,3.3-2.6,4.8-3.2c0.8-0.4,2.2-0.8,3.2-1.2
				c0.7-0.2,1.4-0.5,1.6-0.6c0.3-0.2,0.7-0.4,1-1.8c0.3-1.2-0.1-2.5-0.2-3c0-0.1,0-0.2,0-0.2c0-0.1-0.1-0.3-0.2-0.3s-0.2,0-0.3,0.1
				c-0.6,0.3-5.3,3.5-7.2,5c-1.7,1.3-6.5,6.1-8.5,8.1c-3.4,3.4-14.5,14.5-15.8,16c-1.1,1.4-1.9,3.2-3.1,6c-0.2,0.6-0.5,1.2-0.8,1.9
				c-1.7,4-2.6,5.5-4.2,7.4c-0.3,0.4-0.9,1-1.8,1.9l-2.7,2.8c-2,2-3.9,3.9-3.9,3.9l-0.5-0.5c0,0,1.9-1.9,3.9-3.9l2.7-2.8
				c0.8-0.9,1.4-1.5,1.7-1.9c1.5-1.8,2.4-3.3,4-7.2c0.3-0.7,0.5-1.3,0.8-1.9c1.2-2.9,2-4.7,3.2-6.2c1.3-1.6,12.4-12.7,15.8-16
				c2.1-2.1,6.9-6.9,8.6-8.2c1.8-1.4,6.6-4.7,7.3-5.1c0.4-0.2,0.7-0.2,1-0.1c0.4,0.2,0.5,0.6,0.5,0.8c0,0,0,0.1,0,0.2
				c0.1,0.5,0.5,1.9,0.2,3.3c-0.3,1.6-0.9,2-1.4,2.3c-0.2,0.1-0.7,0.3-1.7,0.6c-1.1,0.4-2.4,0.8-3.2,1.2c-1.4,0.6-3.7,2.2-4.6,3.1
				c-1,0.9-14.4,14.1-15.7,15.5L67.1,28c-1.3,1.3-3.9,3.9-4.2,4.4c-0.3,0.5-2.1,4.3-3.2,6.8c-0.8,1.8-3,6.2-4.5,7.8
				c-0.4,0.4-1.1,1.2-2.1,2.2L50.4,52C48.4,54,46.6,55.9,46.6,55.9z"/>
		</g>
		<g>
			<path class="st23" d="M42.4,60.8l0.2,0.2c0.3-0.3,0.6-0.6,0.8-0.9L43.3,60C42.9,60.2,42.6,60.5,42.4,60.8z"/>
			<path class="st23" d="M41.6,60.1c0.3-0.3,0.6-0.6,0.9-0.9l-0.3-0.3l-0.9,0.9L41.6,60.1z"/>
			<path class="st23" d="M40.5,57.2L40.5,57.2c-0.4,0.2-0.7,0.5-1,0.7l0.1,0.1C39.9,57.7,40.2,57.4,40.5,57.2z"/>
			<path class="st23" d="M40.2,60.8l-0.9,0.9l0.4,0.4c0.3-0.3,0.6-0.6,0.9-0.9L40.2,60.8z"/>
			<path class="st23" d="M40.5,62.8l0.3,0.3c0.3-0.3,0.5-0.6,0.8-1l-0.2-0.2C41.1,62.2,40.8,62.5,40.5,62.8z"/>
			<path class="st23" d="M38.5,59L38.5,59c-0.4,0.2-0.8,0.4-1.1,0.7l0.2,0.2C37.8,59.5,38.2,59.3,38.5,59z"/>
			<path class="st23" d="M40.5,59l0.9-0.9l-0.2-0.2c-0.3,0.3-0.6,0.6-0.9,0.8L40.5,59z"/>
			<path class="st23" d="M37.9,65.6c-0.4,0.4-1.2,1.3-2.2,2.5c-2.3,2.6-5.5,6.2-6.4,7.2c-1.5,1.8-6.4,6.6-9.7,9.1
				c-0.8,0.6-1.8,1.4-2.8,2.1c-1.9,1.5-3.8,3-4.7,3.6c-0.8,0.5-3.1,2.2-4.7,3.3c0.4-0.2,0.9-0.4,1.2-0.6c0.4-0.2,2.7-1.6,4.7-2.8
				c1.6-1,3.3-2,4.4-2.6c2.5-1.5,7.6-5.4,9.8-7.8c2.2-2.3,7.6-9.3,10.6-13.4c0.5-0.6,1-1.3,1.6-2l-0.3-0.3
				C38.8,64.6,38.2,65.3,37.9,65.6z"/>
			<path class="st23" d="M39.2,59.7c-0.3,0.3-0.6,0.6-0.9,0.8l0.3,0.3l0.9-0.9L39.2,59.7z"/>
			<path class="st23" d="M6.1,93c1.5-1.1,4.5-3.2,5.4-3.8c0.8-0.6,2.8-2.1,4.6-3.5c1-0.8,1.9-1.5,2.8-2.1c3.2-2.5,8-7.1,9.5-8.9
				c0.9-1.1,4.1-4.7,6.4-7.3c1-1.1,1.9-2.1,2.2-2.5c0.3-0.3,0.9-1,1.6-1.8l-0.5-0.5L6.1,93z"/>
			<path class="st23" d="M33.5,64.6c-1.1,0.8-2.4,1.9-3.9,3C26,70.3,21.5,73.7,19,76c-2.7,2.5-7.3,7.7-9.4,10.7
				c-0.9,1.2-2.9,3.9-4,5.3l31.9-30.2l-0.3-0.3C35.8,62.7,34.5,63.8,33.5,64.6z"/>
			<path class="st23" d="M26,67.7l-1.4,1c-2,1.4-6.1,4.5-8.2,6.6S10.7,81.9,10,83c-0.5,0.8-2.9,4.9-4.4,7.4c1.1-1.4,2.5-3.3,3.2-4.3
				c2.2-3,6.8-8.3,9.6-10.9c2.5-2.3,7-5.8,10.7-8.5c1.5-1.1,2.8-2.1,3.9-3c1-0.8,2.3-1.8,3.6-3l-0.2-0.2
				C33.8,62.4,28.7,65.8,26,67.7z"/>
			<path d="M43.8,54c0.2-0.2,0.2-0.5,0-0.8c-0.2-0.2-0.5-0.2-0.8,0c0,0-0.6,0.6-1.6,1.4l0.8,0.8C43.1,54.6,43.7,54,43.8,54z"/>
			<path d="M40.4,57.1l-0.8-0.8c-0.3,0.3-0.6,0.6-0.9,0.8l0.8,0.8C39.8,57.6,40.1,57.4,40.4,57.1z"/>
			<path d="M38.3,58.9l-0.8-0.8c-0.3,0.3-0.7,0.5-1,0.8l0.8,0.8C37.7,59.4,38,59.1,38.3,58.9z"/>
			<path d="M5.5,90.4C7,87.9,9.4,83.8,9.9,83c0.7-1.1,4.3-5.6,6.4-7.7c2.2-2.2,6.2-5.2,8.2-6.6l1.4-1c2.8-1.9,7.8-5.3,10.2-7.2
				l-0.8-0.8c-2.5,1.8-7.4,5.2-10.1,7l-1.4,1c-2.1,1.4-6.2,4.6-8.4,6.8c-2.2,2.2-5.8,6.7-6.5,7.9c-0.7,1.1-5.3,9-5.5,9.4
				c-0.1,0.3-0.1,0.6,0.2,0.7c0.1,0,0.2,0.1,0.3,0.1l0,0c0-0.1,0-0.2,0.1-0.3C4.1,92.3,4.7,91.5,5.5,90.4z"/>
			<path d="M45.5,55.7c0.2-0.2,0.2-0.5,0-0.8c-0.2-0.2-0.5-0.2-0.8,0l-1.6,1.5l0.8,0.8L45.5,55.7z"/>
			<path d="M6.1,93l32.1-30.4l-0.8-0.8L5.6,92c-0.4,0.6-0.7,1-0.7,1c-0.1,0.1-0.3,0.2-0.4,0.2l0,0c-0.1,0.2-0.1,0.4,0.1,0.6
				C4.7,93.9,4.8,94,4.9,94S5,94,5,94c0-0.1,0.1-0.2,0.2-0.3C5.3,93.6,5.7,93.4,6.1,93z"/>
			<polygon points="41.3,59.8 42.2,58.9 41.4,58.1 40.5,59 			"/>
			<polygon points="39.5,60 38.6,60.9 39.3,61.6 40.2,60.8 			"/>
			<path d="M47.2,56.6c-0.2-0.2-0.5-0.2-0.8,0c0,0-0.6,0.6-1.4,1.5l0.8,0.8c0.9-0.9,1.4-1.6,1.4-1.6C47.4,57.2,47.4,56.8,47.2,56.6z
				"/>
			<path d="M42.5,61l0.8,0.8c0.3-0.3,0.6-0.6,0.8-0.9l-0.8-0.8C43.1,60.4,42.8,60.7,42.5,61z"/>
			<path d="M40.8,63.1l0.8,0.8c0.3-0.3,0.5-0.6,0.8-1l-0.8-0.8C41.3,62.4,41,62.7,40.8,63.1z"/>
			<path d="M38.3,66.2c-3,4.1-8.4,11.1-10.6,13.4s-7.3,6.3-9.8,7.8C16.8,88,15.1,89,13.5,90c-2,1.2-4.3,2.6-4.7,2.8
				c-0.3,0.1-0.7,0.3-1.2,0.6C6.7,94.1,6,94.5,6,94.6c-0.1,0.1-0.2,0.1-0.3,0.1c0,0.1,0,0.2,0,0.3c0.1,0.2,0.3,0.3,0.5,0.3
				c0.1,0,0.2,0,0.3-0.1c0,0,1.9-1,2.7-1.4c0.5-0.2,2.2-1.2,4.9-2.9c1.6-1,3.3-2,4.4-2.6c2.6-1.5,7.8-5.6,10.1-7.9
				c2.4-2.5,8.2-10,10.7-13.5c0.4-0.6,0.9-1.2,1.5-1.9L40,64.2C39.3,64.9,38.7,65.6,38.3,66.2z"/>
			<path d="M5.6,92c1.1-1.4,3.1-4.1,4-5.3c2.1-3,6.7-8.2,9.4-10.7c2.5-2.3,7-5.7,10.6-8.4c1.5-1.1,2.8-2.2,3.9-3
				c1-0.8,2.3-1.9,3.7-3.1l-0.8-0.8c-1.3,1.1-2.6,2.2-3.6,3c-1.1,0.8-2.4,1.9-3.9,3c-3.6,2.8-8.2,6.2-10.7,8.5
				c-2.7,2.6-7.4,7.8-9.6,10.9c-0.7,1-2.1,2.8-3.2,4.3c-0.6,1.1-1.1,1.9-1.1,1.9c-0.1,0.2-0.3,0.3-0.5,0.3c0,0.2,0,0.4,0.2,0.5
				c0.1,0.1,0.2,0.1,0.3,0.1c0-0.1,0.1-0.1,0.1-0.2L5.6,92z"/>
			<path d="M40.3,58.8c0.3-0.3,0.6-0.6,0.9-0.8l-0.8-0.8c-0.3,0.3-0.6,0.6-0.9,0.8L40.3,58.8z"/>
			<path d="M38.5,59c-0.3,0.3-0.6,0.6-0.9,0.8l0.8,0.8c0.3-0.3,0.6-0.6,0.9-0.8L38.5,59z"/>
			<path d="M44.6,54.8c0.2-0.2,0.2-0.5,0-0.8c-0.2-0.2-0.5-0.2-0.8,0c0,0-0.6,0.6-1.6,1.5l0.8,0.8C44,55.4,44.6,54.8,44.6,54.8z"/>
			<path d="M5.5,90.4C4.7,91.5,4,92.3,4,92.3c0,0.1,0,0.2,0,0.3c0.2,0,0.4-0.1,0.5-0.3C4.4,92.3,4.9,91.5,5.5,90.4z"/>
			<path d="M4.9,93c0,0,0.3-0.4,0.7-1l-1.1,1c-0.1,0.1-0.1,0.1-0.1,0.2l0,0C4.6,93.2,4.8,93.1,4.9,93z"/>
			<path d="M5.9,94.2c0.1,0,0.8-0.4,1.6-0.8c1.6-1.1,3.8-2.7,4.7-3.3c0.9-0.6,2.8-2.1,4.7-3.6c1-0.8,1.9-1.5,2.8-2.1
				c3.3-2.5,8.2-7.3,9.7-9.1c0.9-1.1,4.1-4.6,6.4-7.2c1-1.1,1.9-2.1,2.2-2.5c0.3-0.3,0.8-0.9,1.6-1.7l-0.8-0.8
				c-0.8,0.8-1.3,1.4-1.6,1.8c-0.4,0.4-1.2,1.3-2.2,2.5c-2.3,2.6-5.5,6.2-6.4,7.3C27,76.4,22.2,81,19,83.5c-0.8,0.6-1.8,1.4-2.8,2.1
				c-1.9,1.5-3.8,3-4.6,3.5c-1,0.7-4,2.8-5.4,3.8l-0.8,0.8c-0.1,0.1-0.1,0.1-0.2,0.1c0,0.1,0,0.3,0.1,0.4s0.3,0.2,0.4,0.2
				c0,0,0,0,0.1,0C5.7,94.4,5.8,94.3,5.9,94.2z"/>
			<path d="M39.7,62l0.8,0.8c0.3-0.3,0.6-0.6,0.9-0.9l-0.8-0.8C40.3,61.4,40,61.7,39.7,62z"/>
			<path d="M42.4,60.8c0.3-0.3,0.6-0.6,0.9-0.9l-0.8-0.8c-0.3,0.3-0.6,0.6-0.9,0.9L42.4,60.8z"/>
			<path d="M46.4,56.6c0.2-0.2,0.2-0.5,0-0.8c-0.2-0.2-0.5-0.2-0.8,0c-0.1,0.1-0.6,0.7-1.4,1.5l0.8,0.8
				C45.8,57.2,46.4,56.6,46.4,56.6z"/>
			<path d="M6.1,93c-0.5,0.3-0.8,0.6-0.9,0.6C5.1,93.7,5,93.8,5,93.9c0.1,0,0.2-0.1,0.2-0.1L6.1,93z"/>
			<path d="M7.5,93.3c-0.8,0.4-1.6,0.8-1.6,0.8c-0.2,0.1-0.2,0.2-0.3,0.4c0.1,0,0.2,0,0.3-0.1C5.9,94.5,6.6,94,7.5,93.3z"/>
		</g>
	</g>
</g>
<g class="st0">
	<g class="st1">
		<g>
			<defs>
				<path id="SVGID_9_" d="M-153,23.9l34,2.8l43.1-6.2l77.1,0.8l28.1,4l26.8-5l21.5,2l1.7,43.5c0,0-12.8,81.5-17.2,121.2
					c4,43.4,25,116.2,25,116.2l0.4,44.1l-35.4,1l-31.4,2.8l-62.9-0.1l-51.4-1.6l-19.8,2l-33.4-2.9l-0.5-39.2c0,0,5-75.9,17.4-122.6
					c-14.1-31.8-23.5-117.4-23.5-117.4L-153,23.9z"/>
			</defs>
			<clipPath id="SVGID_10_">
				<use xlink:href="#SVGID_9_"  style="overflow:visible;"/>
			</clipPath>
			<rect x="-158.4" y="15.4" class="st24" width="251" height="341"/>
		</g>
	</g>
	<path class="st25" d="M-153,23.9l34,2.8l43.1-6.2l77.1,0.8l28.1,4l26.8-5l21.5,2l1.7,43.5c0,0-12.8,81.5-17.2,121.2
		c4,43.4,25,116.2,25,116.2l0.4,44.1l-35.4,1l-31.4,2.8l-62.9-0.1l-51.4-1.6l-19.8,2l-33.4-2.9l-0.5-39.2c0,0,5-75.9,17.4-122.6
		c-14.1-31.8-23.5-117.4-23.5-117.4L-153,23.9z"/>
	<line class="st26" x1="-151.7" y1="75" x2="34.2" y2="75"/>
	<path class="st27" d="M16.9,41.5c0,0,0,0.4,0,1v14"/>
	<path class="st27" d="M-2.1,41.5c0,0,0,0.4,0,1v14"/>
	<path class="st27" d="M36.9,41.5c0,0,0,0.4,0,1v14"/>
	<path class="st27" d="M58.9,41.5c0,0,0,0.4,0,1v14"/>
</g>
<g class="st0">
	<g class="st1">
		<g>
			<defs>
				<path id="SVGID_11_" d="M-153,23.9l34,2.8l43.1-6.2l77.1,0.8l28.1,4l26.8-5l21.5,2l1.7,43.5c0,0-12.8,81.5-17.2,121.2
					c4,43.4,25,116.2,25,116.2l0.4,44.1l-35.4,1l-31.4,2.8l-62.9-0.1l-51.4-1.6l-19.8,2l-33.4-2.9l-0.5-39.2c0,0,5-75.9,17.4-122.6
					c-14.1-31.8-23.5-117.4-23.5-117.4L-153,23.9z"/>
			</defs>
			<clipPath id="SVGID_12_">
				<use xlink:href="#SVGID_11_"  style="overflow:visible;"/>
			</clipPath>
			<rect x="-158.3" y="15.4" class="st28" width="251" height="341"/>
		</g>
	</g>
	<path class="st25" d="M-153,23.9l34,2.8l43.1-6.2l77.1,0.8l28.1,4l26.8-5l21.5,2l1.7,43.5c0,0-12.8,81.5-17.2,121.2
		c4,43.4,25,116.2,25,116.2l0.4,44.1l-35.4,1l-31.4,2.8l-62.9-0.1l-51.4-1.6l-19.8,2l-33.4-2.9l-0.5-39.2c0,0,5-75.9,17.4-122.6
		c-14.1-31.8-23.5-117.4-23.5-117.4L-153,23.9z"/>
	<line class="st26" x1="-151.6" y1="75" x2="34.3" y2="75"/>
	<path class="st27" d="M17,41.5c0,0,0,0.4,0,1v14"/>
	<path class="st27" d="M-2,41.5c0,0,0,0.4,0,1v14"/>
	<path class="st27" d="M37,41.5c0,0,0,0.4,0,1v14"/>
	<path class="st27" d="M59,41.5c0,0,0,0.4,0,1v14"/>
</g>
<g class="st0">
	<g class="st1">
		<g>
			<defs>
				<path id="SVGID_13_" d="M-153,23.9l34,2.8l43.1-6.2l77.1,0.8l28.1,4l26.8-5l21.5,2l1.7,43.5c0,0-12.8,81.5-17.2,121.2
					c4,43.4,25,116.2,25,116.2l0.4,44.1l-35.4,1l-31.4,2.8l-62.9-0.1l-51.4-1.6l-19.8,2l-33.4-2.9l-0.5-39.2c0,0,5-75.9,17.4-122.6
					c-14.1-31.8-23.5-117.4-23.5-117.4L-153,23.9z"/>
			</defs>
			<clipPath id="SVGID_14_">
				<use xlink:href="#SVGID_13_"  style="overflow:visible;"/>
			</clipPath>
			<rect x="-158.4" y="15.4" class="st29" width="251" height="341"/>
		</g>
	</g>
	<path class="st25" d="M-153,23.9l34,2.8l43.1-6.2l77.1,0.8l28.1,4l26.8-5l21.5,2l1.7,43.5c0,0-12.8,81.5-17.2,121.2
		c4,43.4,25,116.2,25,116.2l0.4,44.1l-35.4,1l-31.4,2.8l-62.9-0.1l-51.4-1.6l-19.8,2l-33.4-2.9l-0.5-39.2c0,0,5-75.9,17.4-122.6
		c-14.1-31.8-23.5-117.4-23.5-117.4L-153,23.9z"/>
	<line class="st26" x1="-151.7" y1="75" x2="34.2" y2="75"/>
	<path class="st27" d="M16.9,41.5c0,0,0,0.4,0,1v14"/>
	<path class="st27" d="M-2.1,41.5c0,0,0,0.4,0,1v14"/>
	<path class="st27" d="M36.9,41.5c0,0,0,0.4,0,1v14"/>
	<path class="st27" d="M58.9,41.5c0,0,0,0.4,0,1v14"/>
</g>
<g class="st0">
	<g class="st1">
		<g>
			<defs>
				<path id="SVGID_15_" d="M-153,23.9l34,2.8l43.1-6.2l77.1,0.8l28.1,4l26.8-5l21.5,2l1.7,43.5c0,0-12.8,81.5-17.2,121.2
					c4,43.4,25,116.2,25,116.2l0.4,44.1l-35.4,1l-31.4,2.8l-62.9-0.1l-51.4-1.6l-19.8,2l-33.4-2.9l-0.5-39.2c0,0,5-75.9,17.4-122.6
					c-14.1-31.8-23.5-117.4-23.5-117.4L-153,23.9z"/>
			</defs>
			<clipPath id="SVGID_16_">
				<use xlink:href="#SVGID_15_"  style="overflow:visible;"/>
			</clipPath>
			<rect x="-158.3" y="15.4" class="st30" width="251" height="341"/>
		</g>
	</g>
	<path class="st25" d="M-153,23.9l34,2.8l43.1-6.2l77.1,0.8l28.1,4l26.8-5l21.5,2l1.7,43.5c0,0-12.8,81.5-17.2,121.2
		c4,43.4,25,116.2,25,116.2l0.4,44.1l-35.4,1l-31.4,2.8l-62.9-0.1l-51.4-1.6l-19.8,2l-33.4-2.9l-0.5-39.2c0,0,5-75.9,17.4-122.6
		c-14.1-31.8-23.5-117.4-23.5-117.4L-153,23.9z"/>
	<line class="st26" x1="-151.6" y1="75" x2="34.3" y2="75"/>
	<path class="st27" d="M17,41.5c0,0,0,0.4,0,1v14"/>
	<path class="st27" d="M-2,41.5c0,0,0,0.4,0,1v14"/>
	<path class="st27" d="M37,41.5c0,0,0,0.4,0,1v14"/>
	<path class="st27" d="M59,41.5c0,0,0,0.4,0,1v14"/>
</g>
<g class="st0">
	<g class="st1">
		<g>
			<defs>
				<path id="SVGID_17_" d="M-34.7-0.7c0.8-3.1,2.4-6.3,4.8-9.2c6.4-7.7,16.2-10.1,21.7-5.5c5,4.2,4.9,12.7,0.1,19.9
					c3.4,5.3,3,12.6-1.5,17.8c-5.4,6.5-14.8,7.5-20.9,2.3c-2-1.7-3.4-3.9-4.2-6.2c-3.3,1.1-7,0.6-9.9-1.8c-4.3-3.6-4.9-10-1.3-14.3
					C-43.1-1-38.6-2.1-34.7-0.7z"/>
			</defs>
			<clipPath id="SVGID_18_">
				<use xlink:href="#SVGID_17_"  style="overflow:visible;"/>
			</clipPath>
			<rect x="-53.3" y="-22.7" class="st31" width="53.7" height="55.7"/>
		</g>
	</g>
	<g class="st1">
		<g>
			<defs>
				<path id="SVGID_19_" d="M6.2,72.2c-1.4,1.4-3,2.5-4.9,3.3c-7.8,3.3-16.7-0.3-20-8.1s0.3-16.7,8.1-20c0.3-0.1,0.6-0.2,0.8-0.3
					c0.4-4.9,3.5-9.4,8.4-11.5c7-3,15.1,0.3,18.1,7.3c1.6,3.7,1.4,7.7-0.1,11c3.2,0.8,6.1,3,7.5,6.3c2.4,5.5-0.2,11.9-5.8,14.3
					C14,76.5,9.2,75.4,6.2,72.2z"/>
			</defs>
			<clipPath id="SVGID_20_">
				<use xlink:href="#SVGID_19_"  style="overflow:visible;"/>
			</clipPath>
			<rect x="-25" y="29.6" class="st32" width="54.8" height="52.2"/>
		</g>
	</g>
	<path class="st33" d="M6.2,72.2c-1.4,1.4-3,2.5-4.9,3.3c-7.8,3.3-16.7-0.3-20-8.1s0.3-16.7,8.1-20c0.3-0.1,0.6-0.2,0.8-0.3
		c0.4-4.9,3.5-9.4,8.4-11.5c7-3,15.1,0.3,18.1,7.3c1.6,3.7,1.4,7.7-0.1,11c3.2,0.8,6.1,3,7.5,6.3c2.4,5.5-0.2,11.9-5.8,14.3
		C14,76.5,9.2,75.4,6.2,72.2z"/>
	<g class="st1">
		<g>
			<defs>
				<path id="SVGID_21_" d="M-133.7,91.5c-0.5-4.9,3-8.9,8-8.9H48c5,0,8.5,4,8,8.9L28.9,335.1c-0.5,4.9-5,8.9-10,8.9H-96.7
					c-5,0-9.4-4-10-8.9L-133.7,91.5z"/>
			</defs>
			<clipPath id="SVGID_22_">
				<use xlink:href="#SVGID_21_"  style="overflow:visible;"/>
			</clipPath>
			<path class="st34" d="M-133.7,91.5c-0.5-4.9,3-8.9,8-8.9H48c5,0,8.5,4,8,8.9L28.9,335.1c-0.5,4.9-5,8.9-10,8.9H-96.7
				c-5,0-9.4-4-10-8.9L-133.7,91.5z"/>
		</g>
	</g>
	<line class="st35" x1="-131.1" y1="336" x2="75.2" y2="80.4"/>
	<line class="st35" x1="-131.1" y1="292.5" x2="75.2" y2="36.8"/>
	<line class="st35" x1="-131.1" y1="248.9" x2="75.2" y2="-6.8"/>
	<line class="st35" x1="-131.1" y1="205.3" x2="75.2" y2="-50.3"/>
	<line class="st35" x1="-131.1" y1="161.7" x2="75.2" y2="-93.9"/>
	<rect x="-135" y="82" class="st15" width="192" height="263"/>
	<rect x="-135" y="82" class="st15" width="192" height="263"/>
	<path class="st15" d="M-133.6,92.5c-0.6-5.5,3.4-9.9,8.9-9.9H47c5.5,0,9.5,4.5,8.9,9.9L29.1,334.1c-0.6,5.5-5.6,9.9-11.1,9.9H-95.7
		c-5.5,0-10.5-4.5-11.1-9.9L-133.6,92.5z"/>
	<g class="st1">
		<g>
			<defs>
				<path id="SVGID_23_" d="M31.5,68.8c-2-2.5-3.6-5.7-4.4-9.3c-2.3-9.8,1.6-19,8.7-20.6c6.3-1.5,13,3.7,16,11.9
					c6.3,0.5,11.8,5.2,13.4,11.9c1.9,8.2-2.9,16.3-10.7,18.1c-2.6,0.6-5.2,0.4-7.5-0.4c-1.1,3.3-3.8,5.9-7.4,6.8
					c-5.5,1.3-10.9-2.1-12.2-7.6C26.2,75.3,28.1,71.1,31.5,68.8z"/>
			</defs>
			<clipPath id="SVGID_24_">
				<use xlink:href="#SVGID_23_"  style="overflow:visible;"/>
			</clipPath>
			<rect x="21.4" y="33.6" class="st36" width="49.1" height="58.8"/>
		</g>
	</g>
	<path class="st37" d="M31.5,68.8c-2-2.5-3.6-5.7-4.4-9.3c-2.3-9.8,1.6-19,8.7-20.6c6.3-1.5,13,3.7,16,11.9
		c6.3,0.5,11.8,5.2,13.4,11.9c1.9,8.2-2.9,16.3-10.7,18.1c-2.6,0.6-5.2,0.4-7.5-0.4c-1.1,3.3-3.8,5.9-7.4,6.8
		c-5.5,1.3-10.9-2.1-12.2-7.6C26.2,75.3,28.1,71.1,31.5,68.8z"/>
	<g class="st1">
		<g>
			<defs>
				<path id="SVGID_25_" d="M-1.4,60.1c-0.7-1.8-1.1-3.8-1.1-5.8c0-8.4,6.8-15.3,15.3-15.3C21.1,39,28,45.8,28,54.2
					c0,0.3,0,0.6,0,0.9c4.3,2.3,7.3,6.9,7.3,12.2c0,7.6-6.2,13.8-13.8,13.8c-4,0-7.6-1.7-10.1-4.4c-2,2.7-5.2,4.4-8.8,4.4
					c-6,0-10.9-4.9-10.9-10.9C-8.4,65.6-5.5,61.6-1.4,60.1z"/>
			</defs>
			<clipPath id="SVGID_26_">
				<use xlink:href="#SVGID_25_"  style="overflow:visible;"/>
			</clipPath>
			<rect x="-13.4" y="34" class="st38" width="53.6" height="52.1"/>
		</g>
	</g>
	<path class="st39" d="M-1.4,60.1c-0.7-1.8-1.1-3.8-1.1-5.8c0-8.4,6.8-15.3,15.3-15.3C21.1,39,28,45.8,28,54.2c0,0.3,0,0.6,0,0.9
		c4.3,2.3,7.3,6.9,7.3,12.2c0,7.6-6.2,13.8-13.8,13.8c-4,0-7.6-1.7-10.1-4.4c-2,2.7-5.2,4.4-8.8,4.4c-6,0-10.9-4.9-10.9-10.9
		C-8.4,65.6-5.5,61.6-1.4,60.1z"/>
	<g class="st1">
		<g>
			<defs>
				<path id="SVGID_27_" d="M9.1,37.4c-1.4,1.4-3,2.5-4.9,3.3c-7.8,3.3-16.7-0.3-20-8.1s0.3-16.7,8.1-20c0.3-0.1,0.6-0.2,0.8-0.3
					c0.4-4.9,3.5-9.4,8.4-11.5c7-3,15.1,0.3,18.1,7.3c1.6,3.7,1.4,7.7-0.1,11c3.2,0.8,6.1,3,7.5,6.3c2.4,5.5-0.2,11.9-5.8,14.3
					C16.9,41.6,12.1,40.5,9.1,37.4z"/>
			</defs>
			<clipPath id="SVGID_28_">
				<use xlink:href="#SVGID_27_"  style="overflow:visible;"/>
			</clipPath>
			<rect x="-22.1" y="-5.3" class="st40" width="54.8" height="52.2"/>
		</g>
	</g>
	<path class="st39" d="M9.1,37.4c-1.4,1.4-3,2.5-4.9,3.3c-7.8,3.3-16.7-0.3-20-8.1s0.3-16.7,8.1-20c0.3-0.1,0.6-0.2,0.8-0.3
		c0.4-4.9,3.5-9.4,8.4-11.5c7-3,15.1,0.3,18.1,7.3c1.6,3.7,1.4,7.7-0.1,11c3.2,0.8,6.1,3,7.5,6.3c2.4,5.5-0.2,11.9-5.8,14.3
		C16.9,41.6,12.1,40.5,9.1,37.4z"/>
	<g class="st1">
		<g>
			<defs>
				<path id="SVGID_29_" d="M-26.1,61.4c-3.3-3.1-7.7-4.6-12-3.6c-7.4,1.7-11.8,10.1-9.9,18.7c2,8.6,9.6,14.2,17,12.5
					c0.8-0.2,1.6-0.5,2.4-0.8c0,0.8,0.1,1.6,0.3,2.4c1.5,6.6,9.4,10.5,17.6,8.6S2.8,90.5,1.4,83.9C9.2,80,13.6,72,11.8,64.2
					c-2-8.5-10.6-13.9-20-13.1c-2.5-2.2-6.1-3.3-9.7-2.5C-23.6,50-27.2,55.6-26.1,61.4z"/>
			</defs>
			<clipPath id="SVGID_30_">
				<use xlink:href="#SVGID_29_"  style="overflow:visible;"/>
			</clipPath>
			<rect x="-53.4" y="43.4" class="st41" width="70.6" height="61.3"/>
		</g>
	</g>
	<path class="st37" d="M-26.1,61.4c-3.3-3.1-7.7-4.6-12-3.6c-7.4,1.7-11.8,10.1-9.9,18.7c2,8.6,9.6,14.2,17,12.5
		c0.8-0.2,1.6-0.5,2.4-0.8c0,0.8,0.1,1.6,0.3,2.4c1.5,6.6,9.4,10.5,17.6,8.6S2.8,90.5,1.4,83.9C9.2,80,13.6,72,11.8,64.2
		c-2-8.5-10.6-13.9-20-13.1c-2.5-2.3-6.1-3.3-9.7-2.5C-23.6,50-27.2,55.6-26.1,61.4z"/>
	<g class="st1">
		<g>
			<defs>
				<path id="SVGID_31_" d="M4,112c-4.1-0.2-7.8-3.1-8.8-7.3c-1.2-5.1,2-10.2,7.1-11.3c0.4-0.1,0.8-0.2,1.3-0.2
					c-1.7-1.8-3-4.1-3.6-6.7C-1.9,78.6,3,70.8,10.8,69c5.8-1.3,11.6,1,14.9,5.5c7-1.5,13.8,2.9,15.4,9.9c1.2,5.1-0.8,10.1-4.6,13.2
					c0.3,0.6,0.5,1.2,0.6,1.9c1.7,7.4-4.8,15.3-14.6,17.5C15,118.7,7.6,116.5,4,112z"/>
			</defs>
			<clipPath id="SVGID_32_">
				<use xlink:href="#SVGID_31_"  style="overflow:visible;"/>
			</clipPath>
			<rect x="-10.1" y="63.6" class="st42" width="56.6" height="58.9"/>
		</g>
	</g>
	<path class="st39" d="M4,112c-4.1-0.2-7.8-3.1-8.8-7.3c-1.2-5.1,2-10.2,7.1-11.3c0.4-0.1,0.8-0.2,1.3-0.2c-1.7-1.8-3-4.1-3.6-6.7
		C-1.9,78.6,3,70.8,10.8,69c5.8-1.3,11.6,1,14.9,5.5l0,0c7-1.5,13.8,2.9,15.4,9.9c1.2,5.1-0.8,10.1-4.6,13.2
		c0.3,0.6,0.5,1.2,0.6,1.9c1.7,7.4-4.8,15.3-14.6,17.5C15,118.7,7.6,116.5,4,112z"/>
	<path class="st27" d="M26.9,76.1c0,0,3.3,5.8-2.3,11.7c-5.7,6-11.2,3.7-11.2,3.7"/>
	<path class="st27" d="M19.6,20.8c0,0-2.4,6.2-10.6,5.6C0.8,25.7-0.9,20-0.9,20"/>
</g>
</svg>
